<?xml version="1.0" standalone="no"?>
<!DOCTYPE svg PUBLIC "-//W3C//DTD SVG 20010904//EN"
 "http://www.w3.org/TR/2001/REC-SVG-20010904/DTD/svg10.dtd">
<svg version="1.0" xmlns="http://www.w3.org/2000/svg"
 width="128.0a0607pt" height="128.0a0607pt" viewBox="0 0 128.0a0607 128.0a0607"
 preserveAspectRatio="xMidYMid meet">
<metadata>
Created by potrace 1.16, written by Peter Selinger 2001-2019
</metadata>
<g transform="translate(0.0a0607,128.0a0607) scale(0.100000,-0.100000)"
fill="#0a0607" stroke="none">
<path d="M544 1250 c-67 -14 -126 -31 -122 -35 2 -2 30 3 63 11 72 16 224 18
297 3 149 -31 330 -172 395 -309 41 -84 63 -173 63 -248 0 -89 -11 -96 -105
-66 -94 30 -105 30 -105 1 0 -24 -21 -56 -82 -129 -21 -25 -44 -60 -52 -80
l-15 -35 45 -44 c25 -24 57 -66 71 -92 23 -47 23 -50 7 -68 -10 -11 -12 -19
-5 -19 6 0 44 33 85 72 117 117 176 256 176 420 0 110 -13 174 -56 266 -76
167 -224 293 -393 337 -77 20 -211 27 -267 15z"/>
<path d="M330 1170 c-9 -6 -10 -10 -3 -10 6 0 15 5 18 10 8 12 4 12 -15 0z"/>
<path d="M180 1047 c-169 -201 -201 -453 -88 -686 35 -73 165 -212 228 -244
l35 -18 -35 27 c-74 59 -168 166 -204 233 -73 139 -90 302 -47 456 21 78 83
198 116 225 14 12 40 50 33 50 -2 -1 -19 -20 -38 -43z"/>
<path d="M476 787 c-82 -25 -43 -47 85 -47 37 0 71 4 74 10 9 15 -56 50 -90
49 -16 0 -48 -6 -69 -12z"/>
<path d="M148 603 c-65 -17 -66 -18 -43 -103 29 -109 83 -195 164 -263 l33
-28 27 43 c36 56 99 112 153 137 43 19 138 96 138 110 0 5 -61 11 -135 15 -74
3 -146 11 -159 16 -32 12 -66 49 -66 72 0 22 -30 22 -112 1z"/>
</g>
</svg>
