<?xml version="1.0" standalone="no"?>
<!DOCTYPE svg PUBLIC "-//W3C//DTD SVG 20010904//EN"
 "http://www.w3.org/TR/2001/REC-SVG-20010904/DTD/svg10.dtd">
<svg version="1.0" xmlns="http://www.w3.org/2000/svg"
 width="128.0a0607pt" height="128.0a0607pt" viewBox="0 0 128.0a0607 128.0a0607"
 preserveAspectRatio="xMidYMid meet">
<metadata>
Created by potrace 1.16, written by Peter Selinger 2001-2019
</metadata>
<g transform="translate(0.0a0607,128.0a0607) scale(0.100000,-0.100000)"
fill="#0a0607" stroke="none">
<path d="M502 1250 c-18 -4 -36 -11 -39 -14 -4 -3 9 -3 28 1 19 5 90 8 159 7
111 0 133 -4 199 -28 239 -90 400 -306 401 -537 0 -92 -9 -98 -103 -70 -93 27
-117 27 -117 0 0 -64 -51 -84 -235 -94 l-140 -8 40 -34 c22 -19 77 -52 122
-74 90 -43 150 -97 188 -170 l24 -47 -27 -27 -27 -28 31 16 c45 23 143 126
182 189 56 94 75 161 80 284 5 124 -9 198 -57 299 -74 158 -229 283 -409 329
-63 17 -240 20 -300 6z"/>
<path d="M370 1200 c-8 -5 -10 -10 -5 -10 6 0 17 5 25 10 8 5 11 10 5 10 -5 0
-17 -5 -25 -10z"/>
<path d="M249 1123 c-13 -16 -12 -17 4 -4 16 13 21 21 13 21 -2 0 -10 -8 -17
-17z"/>
<path d="M185 1070 c-10 -11 -14 -20 -9 -20 5 0 15 9 22 20 7 11 11 20 9 20
-2 0 -12 -9 -22 -20z"/>
<path d="M125 993 c-184 -251 -132 -621 116 -822 35 -28 67 -51 70 -51 4 0
-34 42 -84 93 -70 70 -101 110 -129 167 -68 138 -82 297 -39 443 20 67 68 164
99 200 8 9 12 17 9 17 -4 0 -23 -21 -42 -47z"/>
<path d="M676 779 c-14 -11 -24 -25 -20 -30 6 -10 105 -1 139 12 18 6 16 9
-17 23 -49 21 -70 20 -102 -5z"/>
<path d="M135 606 c-34 -8 -51 -18 -53 -30 -6 -29 35 -147 73 -211 35 -60 117
-145 139 -145 6 0 20 16 31 36 10 19 34 49 53 65 45 40 40 56 -49 166 -38 48
-72 98 -75 110 -7 26 -36 29 -119 9z"/>
</g>
</svg>
