<?xml version="1.0" standalone="no"?>
<!DOCTYPE svg PUBLIC "-//W3C//DTD SVG 20010904//EN"
 "http://www.w3.org/TR/2001/REC-SVG-20010904/DTD/svg10.dtd">
<svg version="1.0" xmlns="http://www.w3.org/2000/svg"
 width="128.0a0607pt" height="128.0a0607pt" viewBox="0 0 128.0a0607 128.0a0607"
 preserveAspectRatio="xMidYMid meet">
<metadata>
Created by potrace 1.16, written by Peter Selinger 2001-2019
</metadata>
<g transform="translate(0.0a0607,128.0a0607) scale(0.100000,-0.100000)"
fill="#0a0607" stroke="none">
<path d="M497 1236 c-26 -7 -51 -17 -55 -21 -4 -5 2 -5 13 -1 102 37 271 33
385 -9 228 -84 387 -296 393 -525 2 -53 -2 -73 -15 -86 -15 -15 -21 -15 -95
10 -43 14 -83 26 -90 26 -6 0 -16 -14 -22 -30 -7 -21 -22 -36 -46 -46 -50 -20
-97 -6 -151 47 -25 25 -47 38 -54 34 -13 -8 -9 -72 11 -173 10 -50 13 -54 61
-78 70 -35 130 -94 158 -154 20 -43 22 -54 12 -71 -12 -19 -11 -19 8 -9 12 6
48 39 81 72 119 121 183 310 160 478 -32 249 -166 422 -396 515 -61 25 -86 29
-190 32 -79 2 -136 -2 -168 -11z"/>
<path d="M373 1190 c-24 -10 -43 -21 -43 -24 0 -4 90 32 99 40 11 10 -18 2
-56 -16z"/>
<path d="M269 1123 c-13 -17 -13 -17 6 -3 11 8 22 16 24 17 2 2 0 3 -6 3 -6 0
-17 -8 -24 -17z"/>
<path d="M177 1037 c-160 -195 -191 -452 -82 -675 51 -103 187 -242 260 -265
19 -6 19 -6 1 6 -115 74 -220 201 -269 325 -39 99 -48 248 -23 356 18 75 74
195 110 236 32 37 49 60 43 60 -2 0 -21 -19 -40 -43z"/>
<path d="M466 601 c-27 -27 -60 -51 -73 -54 -42 -8 -87 10 -106 43 -21 35 -36
37 -127 11 -65 -18 -65 -18 -62 -52 10 -93 68 -212 139 -283 62 -61 66 -62
102 -6 33 51 83 95 138 123 38 20 50 52 63 167 14 120 2 128 -74 51z"/>
</g>
</svg>
