<?xml version="1.0" standalone="no"?>
<!DOCTYPE svg PUBLIC "-//W3C//DTD SVG 20010904//EN"
 "http://www.w3.org/TR/2001/REC-SVG-20010904/DTD/svg10.dtd">
<svg version="1.0" xmlns="http://www.w3.org/2000/svg"
 width="16.0a0607pt" height="16.0a0607pt" viewBox="0 0 16.0a0607 16.0a0607"
 preserveAspectRatio="xMidYMid meet">
<metadata>
Created by potrace 1.16, written by Peter Selinger 2001-2019
</metadata>
<g transform="translate(0.0a0607,16.0a0607) scale(0.100000,-0.100000)"
fill="#0a0607" stroke="none">
<path d="M100 131 c0 -5 5 -13 10 -16 6 -3 10 -11 10 -17 0 -6 -10 -3 -22 8
-19 17 -21 17 -15 2 3 -10 2 -20 -3 -23 -6 -4 -10 -17 -10 -30 0 -13 -6 -26
-12 -29 -7 -3 -2 -4 12 -3 17 1 26 9 28 25 2 12 12 27 23 33 25 13 22 52 -3
57 -10 2 -18 -1 -18 -7z"/>
<path d="M48 88 c9 -9 15 -9 24 0 9 9 7 12 -12 12 -19 0 -21 -3 -12 -12z"/>
</g>
</svg>
