<?xml version="1.0" standalone="no"?>
<!DOCTYPE svg PUBLIC "-//W3C//DTD SVG 20010904//EN"
 "http://www.w3.org/TR/2001/REC-SVG-20010904/DTD/svg10.dtd">
<svg version="1.0" xmlns="http://www.w3.org/2000/svg"
 width="171.0a0607pt" height="171.0a0607pt" viewBox="0 0 171.0a0607 171.0a0607"
 preserveAspectRatio="xMidYMid meet">
<metadata>
Created by potrace 1.16, written by Peter Selinger 2001-2019
</metadata>
<g transform="translate(0.0a0607,171.0a0607) scale(0.100000,-0.100000)"
fill="#0a0607" stroke="none">
<path d="M915 1513 c2 -32 8 -87 13 -122 11 -83 8 -98 -37 -157 -44 -58 -106
-107 -198 -154 -37 -19 -70 -37 -73 -40 -3 -3 -25 -18 -49 -34 -87 -56 -97
-73 -104 -172 -3 -49 -8 -97 -12 -106 -8 -20 -36 -32 -44 -19 -3 5 -17 1 -30
-10 -21 -17 -22 -22 -12 -51 20 -57 58 -106 88 -112 16 -4 73 -33 127 -66 110
-66 141 -75 226 -67 61 7 106 28 192 92 74 56 93 65 119 60 27 -5 41 -24 35
-47 -2 -9 4 -24 14 -33 16 -15 20 -14 48 10 17 14 54 62 82 106 40 62 55 78
62 68 7 -10 8 -6 5 13 -2 16 0 26 7 25 5 -1 10 3 11 8 0 6 3 15 6 20 4 6 10
26 14 45 4 19 11 40 15 45 10 13 30 183 37 319 6 106 -10 222 -28 211 -4 -3
-14 1 -21 8 -8 8 -35 17 -61 21 -26 4 -47 12 -47 18 0 6 -9 8 -20 5 -11 -3
-20 -1 -20 4 0 5 -7 9 -15 9 -8 0 -15 5 -15 11 0 6 -9 9 -20 6 -11 -3 -18 -1
-14 4 3 5 -2 9 -10 9 -9 0 -16 4 -16 10 0 5 -7 7 -15 4 -8 -4 -15 -1 -15 5 0
6 -3 10 -7 9 -16 -3 -43 15 -36 25 3 6 1 7 -5 3 -14 -9 -55 12 -47 24 3 5 0
12 -6 16 -8 4 -9 3 -5 -4 11 -18 -5 -14 -49 13 -65 40 -75 35 -70 -32z m324
-252 c31 -43 26 -72 -25 -142 -93 -126 -141 -195 -185 -267 -24 -40 -51 -84
-59 -97 -8 -12 -29 -47 -47 -77 -17 -29 -46 -72 -62 -96 -27 -37 -36 -42 -69
-42 -35 0 -44 7 -108 77 -38 42 -89 95 -113 117 -25 23 -53 49 -63 59 -27 26
-24 81 7 112 41 40 101 30 155 -25 3 -3 29 -27 57 -54 l51 -49 21 39 c12 22
27 48 34 58 46 73 103 164 112 178 37 61 112 162 147 197 36 35 48 41 84 41
36 0 46 -5 63 -29z"/>
<path d="M1340 640 c0 -5 5 -10 11 -10 5 0 7 5 4 10 -3 6 -8 10 -11 10 -2 0
-4 -4 -4 -10z"/>
</g>
</svg>
