<?xml version="1.0" standalone="no"?>
<!DOCTYPE svg PUBLIC "-//W3C//DTD SVG 20010904//EN"
 "http://www.w3.org/TR/2001/REC-SVG-20010904/DTD/svg10.dtd">
<svg version="1.0" xmlns="http://www.w3.org/2000/svg"
 width="171.000000pt" height="171.000000pt" viewBox="0 0 171.000000 171.000000"
 preserveAspectRatio="xMidYMid meet">
<metadata>
Created by potrace 1.16, written by Peter Selinger 2001-2019
</metadata>
<g transform="translate(0.000000,171.000000) scale(0.100000,-0.100000)"
fill="#000000" stroke="none">
<path d="M871 1558 c4 -24 15 -58 25 -77 24 -48 22 -127 -3 -176 -23 -42 -74
-101 -113 -128 l-24 -17 31 -42 c54 -75 51 -76 169 50 58 61 113 112 122 112
20 0 112 -97 112 -118 0 -9 -50 -67 -111 -128 l-110 -111 110 -108 c68 -66
111 -117 111 -129 0 -23 -85 -106 -109 -106 -9 0 -63 47 -121 105 -58 58 -109
105 -115 105 -6 0 -57 -47 -115 -105 -65 -65 -112 -105 -125 -105 -22 0 -115
87 -115 108 0 7 50 62 112 122 l112 110 -30 31 c-16 17 -55 54 -87 81 l-58 51
-17 -24 c-9 -13 -24 -46 -34 -74 -22 -65 -94 -131 -119 -109 -21 19 -35 18
-59 -6 -17 -17 -19 -28 -14 -57 5 -26 4 -34 -5 -29 -6 4 -11 1 -11 -8 0 -10 6
-13 15 -10 12 5 14 0 9 -27 -5 -27 -3 -31 6 -19 9 12 10 10 6 -12 -4 -16 -2
-28 4 -28 5 0 10 -9 10 -21 0 -11 4 -17 10 -14 6 4 7 -1 3 -10 -3 -10 -2 -20
3 -24 5 -3 23 -33 39 -66 37 -74 36 -73 115 -151 116 -115 266 -171 426 -161
61 3 98 11 133 29 38 19 48 20 44 8 -8 -22 56 45 113 120 84 108 141 216 193
360 33 92 44 186 48 398 4 197 4 202 -16 202 -11 0 -22 4 -25 9 -3 4 -25 11
-49 14 -23 3 -56 13 -72 21 -17 9 -38 16 -47 16 -10 0 -18 5 -18 11 0 6 -7 9
-15 5 -8 -3 -15 -1 -15 5 0 6 -7 9 -15 5 -9 -3 -15 0 -15 9 0 9 -6 12 -17 8
-12 -5 -14 -3 -8 7 5 9 4 11 -3 6 -15 -9 -54 12 -47 24 4 6 -1 7 -11 3 -13 -5
-15 -3 -9 7 5 9 4 11 -4 6 -6 -4 -34 8 -63 29 -53 39 -107 65 -131 65 -11 0
-13 -9 -6 -42z"/>
<path d="M271 824 c0 -11 3 -14 6 -6 3 7 2 16 -1 19 -3 4 -6 -2 -5 -13z"/>
</g>
</svg>
