<?xml version="1.0" standalone="no"?>
<!DOCTYPE svg PUBLIC "-//W3C//DTD SVG 20010904//EN"
 "http://www.w3.org/TR/2001/REC-SVG-20010904/DTD/svg10.dtd">
<svg version="1.0" xmlns="http://www.w3.org/2000/svg"
 width="128.000000pt" height="128.000000pt" viewBox="0 0 128.000000 128.000000"
 preserveAspectRatio="xMidYMid meet">
<metadata>
Created by potrace 1.16, written by Peter Selinger 2001-2019
</metadata>
<g transform="translate(0.000000,128.000000) scale(0.100000,-0.100000)"
fill="#000000" stroke="none">
<path d="M655 1175 c2 -19 7 -40 11 -46 4 -6 10 -28 15 -48 12 -54 -8 -106
-63 -163 -52 -54 -52 -51 -4 -105 l19 -23 79 85 c44 47 88 85 97 85 23 0 81
-61 81 -85 0 -11 -36 -56 -82 -102 l-82 -83 59 -60 c33 -33 62 -60 65 -60 3 0
18 25 33 55 15 30 32 55 39 55 7 0 35 -44 62 -97 l50 -97 19 43 c31 71 46 185
47 342 l0 147 -32 6 c-61 12 -138 39 -138 48 0 6 -7 8 -15 4 -8 -3 -15 0 -15
6 0 6 -3 8 -7 5 -3 -4 -12 1 -20 11 -8 9 -12 11 -8 5 4 -9 1 -11 -9 -7 -9 3
-13 11 -9 17 3 6 1 7 -5 3 -6 -4 -42 13 -79 38 -37 24 -78 47 -91 51 -20 6
-22 4 -17 -30z"/>
<path d="M374 773 c-24 -63 -38 -85 -66 -106 -21 -16 -30 -18 -41 -8 -18 14
-44 5 -52 -18 -7 -24 9 -106 35 -172 47 -118 109 -194 206 -249 47 -27 181
-67 191 -57 2 3 35 65 73 138 l68 133 -54 62 c-30 34 -67 70 -81 79 l-25 17
-82 -81 c-45 -45 -88 -81 -97 -81 -15 0 -89 69 -89 83 0 5 39 46 88 93 l87 86
-65 59 c-35 32 -68 59 -73 59 -4 0 -15 -17 -23 -37z"/>
<path d="M191 614 c0 -11 3 -14 6 -6 3 7 2 16 -1 19 -3 4 -6 -2 -5 -13z"/>
<path d="M890 405 l0 -115 35 0 35 0 0 115 0 115 -35 0 -35 0 0 -115z"/>
<path d="M900 255 c-26 -31 13 -82 44 -56 19 16 21 42 4 59 -16 16 -33 15 -48
-3z"/>
</g>
</svg>
