<?xml version="1.0" standalone="no"?>
<!DOCTYPE svg PUBLIC "-//W3C//DTD SVG 20010904//EN"
 "http://www.w3.org/TR/2001/REC-SVG-20010904/DTD/svg10.dtd">
<svg version="1.0" xmlns="http://www.w3.org/2000/svg"
 width="171.000000pt" height="171.000000pt" viewBox="0 0 171.000000 171.000000"
 preserveAspectRatio="xMidYMid meet">
<metadata>
Created by potrace 1.16, written by Peter Selinger 2001-2019
</metadata>
<g transform="translate(0.000000,171.000000) scale(0.100000,-0.100000)"
fill="#000000" stroke="none">
<path d="M1100 1375 c0 -24 29 -138 45 -177 5 -14 2 -18 -12 -18 -22 0 -228
-45 -255 -55 -20 -8 -24 -1 -33 68 -6 47 -7 48 -28 33 -47 -33 -106 -63 -187
-95 -116 -46 -124 -53 -150 -122 -12 -33 -31 -70 -42 -81 l-21 -21 -12 29 c-6
16 -14 54 -18 86 -3 31 -12 68 -20 83 l-14 27 -13 -33 c-10 -22 -14 -73 -13
-153 0 -92 -3 -126 -15 -144 -30 -46 3 -146 100 -299 44 -70 104 -128 154
-149 18 -8 57 -14 87 -14 60 0 168 25 178 42 4 6 8 108 8 227 1 118 3 217 5
218 1 2 52 10 112 17 95 13 117 13 179 0 41 -9 114 -14 177 -13 58 1 111 -2
118 -6 9 -5 10 8 6 51 -4 40 -3 51 3 34 7 -18 9 0 11 65 1 60 4 83 10 70 5
-12 8 34 8 120 0 106 -2 128 -8 92 -9 -53 -20 -74 -20 -38 0 29 -22 70 -52 98
-28 27 -198 83 -250 83 -34 0 -38 -3 -38 -25z"/>
<path d="M271 734 c0 -11 3 -14 6 -6 3 7 2 16 -1 19 -3 4 -6 -2 -5 -13z"/>
<path d="M1346 709 c-8 -19 -42 -95 -75 -169 -45 -99 -58 -136 -48 -142 6 -4
87 -8 180 -8 l167 0 0 -65 c0 -71 8 -78 45 -41 29 29 62 133 47 148 -8 8 -5
16 8 27 17 14 18 23 9 76 -11 70 -67 170 -95 170 -10 0 -25 -12 -33 -27 -14
-24 -13 -33 12 -110 15 -45 27 -87 27 -92 0 -8 -189 0 -198 9 -5 5 48 146 60
160 13 15 9 62 -6 75 -25 20 -60 8 -78 -28 -25 -50 -30 -51 -13 -2 18 52 11
67 -9 19z m-66 -263 c0 -3 -4 -8 -10 -11 -5 -3 -10 -1 -10 4 0 6 5 11 10 11 6
0 10 -2 10 -4z"/>
<path d="M1453 107 c-51 -33 -91 -62 -89 -64 7 -7 121 29 145 46 24 17 58 82
43 80 -4 0 -48 -28 -99 -62z"/>
</g>
</svg>
