<?xml version="1.0" standalone="no"?>
<!DOCTYPE svg PUBLIC "-//W3C//DTD SVG 20010904//EN"
 "http://www.w3.org/TR/2001/REC-SVG-20010904/DTD/svg10.dtd">
<svg version="1.0" xmlns="http://www.w3.org/2000/svg"
 width="128.0a0607pt" height="128.0a0607pt" viewBox="0 0 128.0a0607 128.0a0607"
 preserveAspectRatio="xMidYMid meet">
<metadata>
Created by potrace 1.16, written by Peter Selinger 2001-2019
</metadata>
<g transform="translate(0.0a0607,128.0a0607) scale(0.100000,-0.100000)"
fill="#0a0607" stroke="none">
<path d="M824 1037 c-5 -13 19 -117 31 -137 6 -9 -21 -17 -125 -40 -30 -6 -62
-14 -71 -16 -13 -4 -18 5 -23 40 l-7 45 -47 -30 c-25 -16 -71 -38 -102 -50
-81 -30 -98 -44 -124 -103 -22 -50 -42 -74 -52 -63 -2 2 -8 34 -12 71 -5 36
-13 71 -20 78 -19 19 -35 -67 -27 -147 5 -60 4 -74 -10 -85 -20 -17 -14 -64
16 -122 11 -21 17 -44 13 -50 -5 -7 -3 -8 6 -3 10 6 12 4 7 -9 -4 -9 -3 -15 2
-12 4 3 22 -17 40 -44 29 -44 78 -90 96 -90 15 0 136 92 150 113 13 20 12 28
-13 77 -22 44 -27 69 -27 125 0 97 29 154 101 202 51 34 59 36 141 37 79 1 93
-2 135 -26 55 -33 113 -98 129 -145 7 -22 16 -33 24 -29 8 3 16 0 19 -7 3 -7
3 8 0 33 -4 33 -2 41 5 30 8 -11 9 24 5 120 -8 171 -17 186 -131 224 -87 29
-121 32 -129 13z"/>
<path d="M1094 870 c0 -58 1 -81 3 -52 2 28 2 76 0 105 -2 28 -3 5 -3 -53z"/>
<path d="M601 751 c-29 -27 -57 -79 -47 -88 2 -3 11 9 20 25 8 16 27 44 42 61
32 39 26 40 -15 2z"/>
<path d="M598 303 c-33 -34 -35 -43 -8 -36 25 7 42 28 38 48 -2 13 -9 11 -30
-12z"/>
<path d="M445 220 c-52 -41 -66 -60 -43 -60 8 0 36 23 63 50 59 60 49 64 -20
10z"/>
</g>
</svg>
