<?xml version="1.0" standalone="no"?>
<!DOCTYPE svg PUBLIC "-//W3C//DTD SVG 20010904//EN"
 "http://www.w3.org/TR/2001/REC-SVG-20010904/DTD/svg10.dtd">
<svg version="1.0" xmlns="http://www.w3.org/2000/svg"
 width="171.000000pt" height="171.000000pt" viewBox="0 0 171.000000 171.000000"
 preserveAspectRatio="xMidYMid meet">
<metadata>
Created by potrace 1.16, written by Peter Selinger 2001-2019
</metadata>
<g transform="translate(0.000000,171.000000) scale(0.100000,-0.100000)"
fill="#000000" stroke="none">
<path d="M1100 1375 c0 -24 29 -138 45 -177 5 -14 2 -18 -12 -18 -22 0 -228
-45 -255 -55 -20 -8 -24 -1 -33 68 -6 47 -7 48 -28 33 -47 -33 -106 -63 -187
-95 -116 -46 -124 -53 -150 -122 -12 -33 -31 -70 -42 -81 l-21 -21 -12 29 c-6
16 -14 54 -18 86 -3 31 -12 68 -20 83 l-14 27 -13 -33 c-10 -22 -14 -73 -13
-153 0 -92 -3 -126 -15 -144 -30 -46 3 -146 100 -299 44 -70 104 -128 154
-149 18 -8 57 -14 87 -14 62 0 168 25 179 43 4 7 8 110 8 230 0 119 3 217 8
217 4 0 54 7 112 15 91 12 114 12 175 -1 41 -9 114 -14 177 -13 58 1 111 -2
118 -6 9 -5 10 8 6 51 -4 40 -3 51 3 34 7 -18 9 0 11 65 1 60 4 83 10 70 5
-12 8 34 8 120 0 106 -2 128 -8 92 -9 -53 -20 -74 -20 -38 0 29 -22 70 -52 98
-28 27 -198 83 -250 83 -34 0 -38 -3 -38 -25z"/>
<path d="M271 734 c0 -11 3 -14 6 -6 3 7 2 16 -1 19 -3 4 -6 -2 -5 -13z"/>
<path d="M1401 724 c0 -11 3 -14 6 -6 3 7 2 16 -1 19 -3 4 -6 -2 -5 -13z"/>
</g>
</svg>
