<?xml version="1.0" standalone="no"?>
<!DOCTYPE svg PUBLIC "-//W3C//DTD SVG 20010904//EN"
 "http://www.w3.org/TR/2001/REC-SVG-20010904/DTD/svg10.dtd">
<svg version="1.0" xmlns="http://www.w3.org/2000/svg"
 width="16.000000pt" height="16.000000pt" viewBox="0 0 16.000000 16.000000"
 preserveAspectRatio="xMidYMid meet">
<metadata>
Created by potrace 1.16, written by Peter Selinger 2001-2019
</metadata>
<g transform="translate(0.000000,16.000000) scale(0.100000,-0.100000)"
fill="#000000" stroke="none">
<path d="M57 127 c-4 -10 -1 -17 6 -18 7 0 3 -4 -8 -9 -11 -5 -14 -9 -7 -9 18
-1 15 -19 -5 -24 -16 -4 -16 -5 -1 -6 21 -1 13 -38 -11 -44 -9 -3 -4 -5 12 -6
22 -1 27 3 27 24 0 14 5 25 12 25 6 0 8 3 5 7 -4 3 -2 12 4 20 7 7 7 13 2 13
-6 0 -14 10 -20 22 -8 19 -10 20 -16 5z"/>
<path d="M117 127 c-4 -10 -2 -17 6 -17 8 0 6 -4 -3 -10 -10 -6 -11 -10 -2
-10 6 0 12 -4 12 -10 0 -5 -7 -10 -16 -10 -11 0 -14 -8 -12 -27 2 -22 9 -29
31 -31 24 -3 27 0 26 25 0 15 -8 46 -18 67 -13 31 -19 36 -24 23z m31 -84 c-5
-26 -38 -29 -38 -4 0 15 6 21 21 21 14 0 19 -5 17 -17z"/>
</g>
</svg>
