<?xml version="1.0" standalone="no"?>
<!DOCTYPE svg PUBLIC "-//W3C//DTD SVG 20010904//EN"
 "http://www.w3.org/TR/2001/REC-SVG-20010904/DTD/svg10.dtd">
<svg version="1.0" xmlns="http://www.w3.org/2000/svg"
 width="16.000000pt" height="16.000000pt" viewBox="0 0 16.000000 16.000000"
 preserveAspectRatio="xMidYMid meet">
<metadata>
Created by potrace 1.16, written by Peter Selinger 2001-2019
</metadata>
<g transform="translate(0.000000,16.000000) scale(0.100000,-0.100000)"
fill="#000000" stroke="none">
<path d="M35 109 c-4 -6 -5 -12 -2 -15 2 -3 7 2 10 11 7 17 1 20 -8 4z"/>
<path d="M10 93 c0 -20 38 -53 61 -53 12 0 27 -7 34 -17 13 -17 45 -12 45 8 0
8 -4 8 -15 -1 -8 -7 -16 -10 -16 -6 -2 7 -6 38 -8 64 -2 14 -4 14 -11 -4 -9
-22 -41 -36 -57 -25 -5 3 -15 15 -21 26 -6 11 -12 14 -12 8z"/>
</g>
</svg>
