<?xml version="1.0" standalone="no"?>
<!DOCTYPE svg PUBLIC "-//W3C//DTD SVG 20010904//EN"
 "http://www.w3.org/TR/2001/REC-SVG-20010904/DTD/svg10.dtd">
<svg version="1.0" xmlns="http://www.w3.org/2000/svg"
 width="16.000000pt" height="16.000000pt" viewBox="0 0 16.000000 16.000000"
 preserveAspectRatio="xMidYMid meet">
<metadata>
Created by potrace 1.16, written by Peter Selinger 2001-2019
</metadata>
<g transform="translate(0.000000,16.000000) scale(0.100000,-0.100000)"
fill="#000000" stroke="none">
<path d="M75 90 c3 -5 0 -10 -7 -10 -8 0 -6 -5 5 -11 18 -11 24 -39 7 -39 -5
0 -10 -7 -10 -15 0 -19 14 -19 30 0 12 14 15 14 30 0 9 -8 20 -15 23 -15 14 0
7 23 -10 36 -17 12 -17 13 0 19 18 7 24 35 8 35 -5 0 -17 -7 -26 -16 -15 -15
-17 -15 -22 5 -3 11 -12 21 -20 21 -8 0 -11 -4 -8 -10z"/>
</g>
</svg>
