<?xml version="1.0" standalone="no"?>
<!DOCTYPE svg PUBLIC "-//W3C//DTD SVG 20010904//EN"
 "http://www.w3.org/TR/2001/REC-SVG-20010904/DTD/svg10.dtd">
<svg version="1.0" xmlns="http://www.w3.org/2000/svg"
 width="16.000000pt" height="16.000000pt" viewBox="0 0 16.000000 16.000000"
 preserveAspectRatio="xMidYMid meet">
<metadata>
Created by potrace 1.16, written by Peter Selinger 2001-2019
</metadata>
<g transform="translate(0.000000,16.000000) scale(0.100000,-0.100000)"
fill="#000000" stroke="none">
<path d="M61 108 c-1 -16 -12 -23 -33 -19 -5 0 -7 -16 -7 -36 1 -38 1 -38 9
-8 4 17 8 22 9 13 1 -21 19 -24 27 -4 3 8 4 27 1 43 -2 15 -5 20 -6 11z"/>
<path d="M143 64 c-16 -17 -17 -27 -1 -18 8 5 9 1 4 -12 -5 -14 -4 -16 4 -8 7
7 10 21 8 32 -2 17 -5 18 -15 6z"/>
</g>
</svg>
