<?xml version="1.0" standalone="no"?>
<!DOCTYPE svg PUBLIC "-//W3C//DTD SVG 20010904//EN"
 "http://www.w3.org/TR/2001/REC-SVG-20010904/DTD/svg10.dtd">
<svg version="1.0" xmlns="http://www.w3.org/2000/svg"
 width="16.000000pt" height="16.000000pt" viewBox="0 0 16.000000 16.000000"
 preserveAspectRatio="xMidYMid meet">
<metadata>
Created by potrace 1.16, written by Peter Selinger 2001-2019
</metadata>
<g transform="translate(0.000000,16.000000) scale(0.100000,-0.100000)"
fill="#000000" stroke="none">
<path d="M60 107 c0 -10 -8 -17 -20 -17 -17 0 -20 -6 -19 -37 1 -38 1 -38 9
-8 5 21 8 24 10 10 1 -14 3 -16 7 -5 2 8 9 25 15 37 6 13 8 26 5 30 -4 3 -7
-1 -7 -10z"/>
<path d="M77 84 c-3 -3 0 -15 6 -26 9 -16 9 -22 0 -25 -7 -3 -13 -11 -13 -19
0 -10 13 -14 45 -14 42 0 58 11 35 25 -5 3 -10 14 -9 23 0 14 2 13 9 -3 7 -17
9 -14 9 14 1 33 1 33 -23 18 -20 -14 -25 -14 -38 -1 -8 8 -17 12 -21 8z m50
-70 c-3 -3 -12 -4 -19 -1 -8 3 -5 6 6 6 11 1 17 -2 13 -5z"/>
<path d="M40 19 c0 -5 5 -7 10 -4 13 8 13 15 0 15 -5 0 -10 -5 -10 -11z"/>
</g>
</svg>
