<?xml version="1.0" standalone="no"?>
<!DOCTYPE svg PUBLIC "-//W3C//DTD SVG 20010904//EN"
 "http://www.w3.org/TR/2001/REC-SVG-20010904/DTD/svg10.dtd">
<svg version="1.0" xmlns="http://www.w3.org/2000/svg"
 width="96.0a0607pt" height="96.0a0607pt" viewBox="0 0 96.0a0607 96.0a0607"
 preserveAspectRatio="xMidYMid meet">
<metadata>
Created by potrace 1.16, written by Peter Selinger 2001-2019
</metadata>
<g transform="translate(0.0a0607,96.0a0607) scale(0.100000,-0.100000)"
fill="#0a0607" stroke="none">
<path d="M715 842 c-34 -37 -83 -95 -109 -130 -27 -35 -58 -68 -70 -73 -17 -8
-15 -9 12 -4 38 5 38 6 -21 -72 -43 -58 -52 -64 -41 -31 6 21 6 22 -17 6 -13
-9 -23 -23 -23 -32 2 -19 -9 -20 -38 -5 -20 11 -20 11 3 35 17 18 19 24 8 27
-84 24 -98 39 -52 59 58 25 83 48 83 78 0 49 -25 54 -147 29 -102 -21 -107
-21 -120 -4 -7 10 -15 17 -17 14 -9 -10 -46 -323 -39 -329 7 -7 192 -45 418
-86 44 -8 99 -19 122 -24 23 -6 46 -10 51 -10 8 0 32 159 32 216 l0 26 -18
-21 c-16 -21 -21 -22 -95 -12 -43 5 -81 12 -84 15 -4 3 1 14 10 24 23 25 21
35 -4 21 -17 -9 -20 -8 -14 3 28 48 49 67 78 73 76 17 157 82 157 127 0 16 -9
10 -45 -30 -40 -44 -103 -87 -113 -77 -3 2 10 22 27 43 17 22 46 66 64 98 18
33 41 71 51 87 28 42 17 32 -49 -41z"/>
<path d="M440 600 c0 -5 9 -10 20 -10 11 0 20 5 20 10 0 6 -9 10 -20 10 -11 0
-20 -4 -20 -10z"/>
<path d="M450 265 c14 -8 56 -24 94 -36 56 -17 70 -18 77 -7 11 17 -2 23 -95
42 -95 19 -108 20 -76 1z"/>
</g>
</svg>
