<?xml version="1.0" standalone="no"?>
<!DOCTYPE svg PUBLIC "-//W3C//DTD SVG 20010904//EN"
 "http://www.w3.org/TR/2001/REC-SVG-20010904/DTD/svg10.dtd">
<svg version="1.0" xmlns="http://www.w3.org/2000/svg"
 width="96.000000pt" height="96.000000pt" viewBox="0 0 96.000000 96.000000"
 preserveAspectRatio="xMidYMid meet">
<metadata>
Created by potrace 1.16, written by Peter Selinger 2001-2019
</metadata>
<g transform="translate(0.000000,96.000000) scale(0.100000,-0.100000)"
fill="#000000" stroke="none">
<path d="M283 833 c9 -2 23 -2 30 0 6 3 -1 5 -18 5 -16 0 -22 -2 -12 -5z"/>
<path d="M705 831 c-34 -5 -40 -10 -40 -31 0 -122 -19 -570 -24 -570 -3 1 -32
39 -64 86 -54 78 -97 117 -113 101 -4 -4 5 -22 20 -41 l26 -35 -54 -40 c-30
-22 -59 -42 -65 -43 -13 -4 -62 62 -55 74 4 6 -12 -2 -35 -17 -23 -16 -38 -32
-34 -39 4 -6 24 -37 45 -68 50 -75 54 -85 31 -91 -14 -4 -13 -5 5 -6 13 0 33
-13 46 -28 l23 -26 79 52 c47 30 85 49 94 45 46 -18 77 -14 146 19 l71 35 7
203 c3 112 9 255 12 317 l7 112 -44 -2 c-24 0 -62 -4 -84 -7z m21 -48 c-4 -21
-11 -119 -16 -218 -19 -371 -22 -405 -36 -405 -13 0 -12 234 2 538 6 122 6
122 31 122 23 0 24 -3 19 -37z m-156 -543 c12 -17 19 -37 16 -45 -7 -18 -106
-85 -127 -85 -19 0 -49 41 -49 67 1 20 95 92 122 93 9 0 26 -14 38 -30z m70
-65 c0 -23 -2 -24 -25 -13 -23 10 -23 12 -7 24 25 19 32 17 32 -11z"/>
<path d="M234 675 c0 -55 1 -76 3 -47 2 29 2 74 0 100 -2 26 -3 2 -3 -53z"/>
<path d="M398 380 c-27 -17 -48 -32 -48 -35 0 -3 18 6 40 20 45 28 51 30 45
13 -7 -18 30 -62 44 -54 8 5 7 15 -6 37 -10 16 -21 29 -26 29 -4 0 -5 5 -2 10
9 14 5 13 -47 -20z"/>
</g>
</svg>
