<?xml version="1.0" standalone="no"?>
<!DOCTYPE svg PUBLIC "-//W3C//DTD SVG 20010904//EN"
 "http://www.w3.org/TR/2001/REC-SVG-20010904/DTD/svg10.dtd">
<svg version="1.0" xmlns="http://www.w3.org/2000/svg"
 width="96.000000pt" height="96.000000pt" viewBox="0 0 96.000000 96.000000"
 preserveAspectRatio="xMidYMid meet">
<metadata>
Created by potrace 1.16, written by Peter Selinger 2001-2019
</metadata>
<g transform="translate(0.000000,96.000000) scale(0.100000,-0.100000)"
fill="#000000" stroke="none">
<path d="M775 830 c3 -5 8 -10 11 -10 2 0 4 5 4 10 0 6 -5 10 -11 10 -5 0 -7
-4 -4 -10z"/>
<path d="M427 809 c-19 -11 -50 -69 -61 -113 -7 -27 -6 -28 24 -24 16 3 30 1
30 -4 0 -4 14 -8 30 -8 17 0 30 3 30 8 -1 28 -48 50 -62 28 -4 -6 -8 9 -8 33
0 32 6 51 22 68 23 25 22 28 -5 12z"/>
<path d="M760 771 c0 -51 -13 -84 -47 -119 -52 -54 -87 -65 -179 -58 l-83 7
-4 -38 -4 -38 -1 43 c-1 23 -5 42 -9 43 -5 0 -25 2 -45 5 -37 4 -50 -7 -26
-22 7 -5 8 -3 3 6 -5 9 -4 11 4 6 6 -4 9 -12 5 -17 -3 -5 -10 -7 -15 -4 -5 4
-9 -3 -9 -14 0 -12 -6 -20 -12 -19 -7 2 -12 -1 -11 -7 1 -5 -10 -10 -23 -10
-13 0 -24 3 -24 7 0 3 -9 4 -20 1 -17 -4 -20 0 -20 23 0 43 -11 74 -25 74 -8
0 -11 -8 -8 -21 9 -34 -29 -51 -111 -51 -72 0 -43 -14 64 -32 116 -19 243 -46
250 -53 5 -5 -18 -2 -120 13 -37 6 -40 4 -46 -22 -6 -25 -8 -26 -14 -9 -7 19
-7 19 -14 -2 -5 -17 -15 -23 -36 -23 -29 0 -40 18 -40 68 0 12 -4 22 -10 22
-5 0 -10 -18 -10 -41 l0 -41 -35 4 c-61 7 -33 -16 38 -31 37 -8 67 -18 67 -23
0 -4 -4 -8 -10 -8 -5 0 -10 -7 -10 -15 0 -8 -7 -15 -15 -15 -8 0 -15 -3 -15
-7 0 -5 -16 -9 -36 -11 -64 -4 -75 -27 -18 -38 22 -4 31 -10 24 -14 -7 -4 -21
-5 -33 -2 -13 3 -18 1 -13 -6 3 -6 2 -13 -4 -17 -5 -3 -10 -21 -10 -39 l0 -33
285 -77 c185 -50 293 -75 308 -70 25 8 77 41 92 60 8 8 8 38 2 92 -5 44 -6
114 -2 156 l7 76 35 9 c20 6 40 8 44 5 13 -8 60 62 75 112 8 26 13 61 13 78
-1 17 -3 24 -6 14 -2 -9 -16 -19 -31 -23 -15 -4 -30 -11 -33 -17 -16 -25 -28
6 -24 62 4 63 23 98 43 78 19 -19 26 0 12 29 -7 16 -15 23 -17 16 -2 -7 -11
-9 -20 -6 -13 5 -15 2 -11 -15 4 -12 2 -25 -4 -28 -13 -8 -21 1 -24 29 -1 12
-3 25 -3 30 -1 4 -8 7 -16 7 -11 0 -15 -11 -15 -39z m-453 -386 c13 -1 26 -5
30 -9 13 -13 -91 -3 -117 11 -23 13 -22 14 20 7 25 -4 55 -8 67 -9z m-137
-105 c13 -9 13 -10 0 -10 -8 0 -22 5 -30 10 -13 9 -13 10 0 10 8 0 22 -5 30
-10z"/>
</g>
</svg>
