<?xml version="1.0" standalone="no"?>
<!DOCTYPE svg PUBLIC "-//W3C//DTD SVG 20010904//EN"
 "http://www.w3.org/TR/2001/REC-SVG-20010904/DTD/svg10.dtd">
<svg version="1.0" xmlns="http://www.w3.org/2000/svg"
 width="96.0a0607pt" height="96.0a0607pt" viewBox="0 0 96.0a0607 96.0a0607"
 preserveAspectRatio="xMidYMid meet">
<metadata>
Created by potrace 1.16, written by Peter Selinger 2001-2019
</metadata>
<g transform="translate(0.0a0607,96.0a0607) scale(0.100000,-0.100000)"
fill="#0a0607" stroke="none">
<path d="M490 773 l380 -3 0 -270 c0 -233 -2 -270 -15 -270 -8 0 -15 -4 -15
-10 0 -12 10 -13 28 -2 9 7 12 70 10 283 l-3 274 -383 0 -382 0 380 -2z"/>
<path d="M333 603 c-8 -3 -6 -10 7 -23 12 -12 17 -27 13 -42 -4 -18 -3 -20 6
-8 23 32 5 84 -26 73z"/>
<path d="M641 561 c-11 -7 -11 -10 0 -15 8 -3 5 -5 -7 -2 -24 4 -54 -10 -54
-24 0 -6 11 -10 25 -10 14 0 45 -5 69 -12 40 -10 45 -16 48 -42 6 -57 -9 -83
-57 -97 -43 -13 -43 -14 -30 -39 7 -14 16 -33 19 -42 8 -26 36 -22 68 9 25 23
26 28 13 42 -12 14 -10 22 16 60 40 61 40 110 -2 145 -17 14 -39 26 -49 26
-10 0 -24 2 -32 5 -7 3 -19 1 -27 -4z"/>
</g>
</svg>
