<?xml version="1.0" standalone="no"?>
<!DOCTYPE svg PUBLIC "-//W3C//DTD SVG 20010904//EN"
 "http://www.w3.org/TR/2001/REC-SVG-20010904/DTD/svg10.dtd">
<svg version="1.0" xmlns="http://www.w3.org/2000/svg"
 width="96.000000pt" height="96.000000pt" viewBox="0 0 96.000000 96.000000"
 preserveAspectRatio="xMidYMid meet">
<metadata>
Created by potrace 1.16, written by Peter Selinger 2001-2019
</metadata>
<g transform="translate(0.000000,96.000000) scale(0.100000,-0.100000)"
fill="#000000" stroke="none">
<path d="M746 759 c-2 -8 -9 -40 -16 -72 -19 -92 -87 -157 -165 -157 -20 0
-35 -3 -33 -7 2 -5 18 -39 37 -77 36 -71 46 -145 28 -210 l-8 -29 43 7 c56 9
74 26 28 26 l-35 1 35 29 c19 16 66 40 104 53 95 32 132 85 153 215 5 30 4 33
-13 24 -34 -17 -79 -36 -89 -37 -15 0 -23 61 -14 111 8 42 7 49 -11 61 -13 9
-19 21 -15 32 3 10 -1 24 -10 31 -12 10 -16 10 -19 -1z m-86 -438 c0 -21 -13
-41 -26 -41 -17 0 -18 22 -2 38 14 14 28 16 28 3z"/>
<path d="M816 741 c-11 -18 4 -36 34 -38 26 -2 28 0 21 20 -9 23 -45 35 -55
18z"/>
<path d="M272 693 c-11 -27 -24 -63 -27 -81 l-7 -33 69 7 c37 4 70 8 72 10 2
2 -1 16 -8 30 -9 21 -17 25 -36 21 -20 -3 -27 1 -31 19 -3 13 -3 35 0 49 11
42 -9 28 -32 -22z"/>
<path d="M331 304 c0 -11 3 -14 6 -6 3 7 2 16 -1 19 -3 4 -6 -2 -5 -13z"/>
</g>
</svg>
