<?xml version="1.0" standalone="no"?>
<!DOCTYPE svg PUBLIC "-//W3C//DTD SVG 20010904//EN"
 "http://www.w3.org/TR/2001/REC-SVG-20010904/DTD/svg10.dtd">
<svg version="1.0" xmlns="http://www.w3.org/2000/svg"
 width="96.0a0607pt" height="96.0a0607pt" viewBox="0 0 96.0a0607 96.0a0607"
 preserveAspectRatio="xMidYMid meet">
<metadata>
Created by potrace 1.16, written by Peter Selinger 2001-2019
</metadata>
<g transform="translate(0.0a0607,96.0a0607) scale(0.100000,-0.100000)"
fill="#0a0607" stroke="none">
<path d="M642 804 c-7 -8 -8 -14 -2 -14 5 0 10 -7 10 -15 0 -8 -7 -15 -15 -15
-11 0 -15 -11 -15 -37 0 -50 -18 -112 -41 -145 l-19 -26 56 -4 c31 -1 60 -1
64 2 4 3 11 27 15 54 10 61 37 95 60 76 30 -25 36 4 9 45 -14 22 -23 32 -20
22 5 -14 1 -18 -17 -15 -19 3 -22 -1 -19 -29 1 -24 -2 -33 -13 -33 -19 0 -43
42 -26 48 8 3 9 8 2 16 -5 6 -11 28 -13 48 -2 30 -5 34 -16 22z"/>
<path d="M117 741 c-66 -73 -93 -214 -63 -326 18 -70 41 -110 95 -168 42 -46
124 -107 142 -107 4 0 8 61 8 136 1 125 0 136 -17 130 -16 -6 -16 -5 1 8 21
17 23 66 2 66 -8 0 -15 4 -15 9 0 6 -12 16 -27 23 -15 7 -28 23 -30 36 -4 27
-23 58 -38 62 -5 1 -9 6 -8 11 2 5 -9 4 -23 -1 -14 -6 -27 -10 -29 -10 -2 0
-3 25 -1 56 3 44 9 61 32 85 15 16 23 29 17 29 -6 0 -27 -18 -46 -39z"/>
<path d="M412 323 c6 -7 14 -10 19 -7 15 9 10 20 -10 20 -15 0 -17 -3 -9 -13z"/>
<path d="M400 234 c0 -1 6 -7 14 -13 10 -9 15 -8 19 2 3 8 -3 13 -14 13 -11 0
-19 -1 -19 -2z"/>
<path d="M400 134 c0 -1 6 -7 14 -13 10 -9 15 -8 19 2 3 8 -3 13 -14 13 -11 0
-19 -1 -19 -2z"/>
</g>
</svg>
