<?xml version="1.0" standalone="no"?>
<!DOCTYPE svg PUBLIC "-//W3C//DTD SVG 20010904//EN"
 "http://www.w3.org/TR/2001/REC-SVG-20010904/DTD/svg10.dtd">
<svg version="1.0" xmlns="http://www.w3.org/2000/svg"
 width="96.0a0607pt" height="96.0a0607pt" viewBox="0 0 96.0a0607 96.0a0607"
 preserveAspectRatio="xMidYMid meet">
<metadata>
Created by potrace 1.16, written by Peter Selinger 2001-2019
</metadata>
<g transform="translate(0.0a0607,96.0a0607) scale(0.100000,-0.100000)"
fill="#0a0607" stroke="none">
<path d="M254 916 c-10 -8 -16 -17 -13 -20 3 -4 72 -17 152 -31 80 -13 162
-31 183 -40 39 -16 65 -13 84 10 20 24 -36 43 -204 70 -184 29 -177 29 -202
11z"/>
<path d="M200 845 c0 -63 30 -588 36 -622 3 -19 14 -37 26 -44 36 -19 393
-137 401 -132 4 2 7 67 7 143 0 124 -2 139 -16 133 -12 -4 -15 -1 -12 13 2 10
9 18 15 17 12 -2 27 92 18 107 -11 17 -20 11 -39 -30 -11 -22 -23 -37 -28 -32
-4 4 3 32 17 61 14 29 28 66 32 82 3 16 9 29 14 29 13 0 11 93 -2 127 -14 37
-56 81 -100 104 -20 10 -106 29 -193 43 -86 14 -161 28 -166 31 -6 4 -10 -9
-10 -30z m285 -35 c18 -8 18 -9 -5 -9 -14 0 -34 4 -45 9 -18 8 -18 9 5 9 14 0
34 -4 45 -9z m49 -463 c-5 -13 -10 -15 -27 -6 -20 11 -20 12 -2 25 22 16 39 5
29 -19z m56 -24 c0 -13 -6 -23 -12 -23 -10 0 -10 -2 -1 -8 7 -4 10 -17 6 -30
-7 -27 -50 -31 -60 -4 -4 9 -15 23 -25 30 -10 7 -18 20 -18 28 0 19 29 18 53
-3 11 -10 17 -12 13 -5 -4 7 -5 24 -2 38 6 21 9 22 26 12 11 -7 20 -23 20 -35z
m-122 -84 c-2 -6 -19 -17 -38 -25 l-35 -14 30 25 c32 26 49 32 43 14z m100
-28 c4 -13 -64 -15 -72 -2 -4 5 -3 16 0 24 5 13 10 14 37 2 17 -7 33 -18 35
-24z"/>
<path d="M707 749 c-23 -17 -25 -23 -16 -46 6 -17 6 -127 -2 -329 -6 -167 -9
-308 -7 -315 3 -8 15 2 30 22 26 34 27 35 39 320 11 271 9 352 -10 364 -5 2
-20 -4 -34 -16z"/>
</g>
</svg>
