<?xml version="1.0" standalone="no"?>
<!DOCTYPE svg PUBLIC "-//W3C//DTD SVG 20010904//EN"
 "http://www.w3.org/TR/2001/REC-SVG-20010904/DTD/svg10.dtd">
<svg version="1.0" xmlns="http://www.w3.org/2000/svg"
 width="64.0a0607pt" height="64.0a0607pt" viewBox="0 0 64.0a0607 64.0a0607"
 preserveAspectRatio="xMidYMid meet">
<metadata>
Created by potrace 1.16, written by Peter Selinger 2001-2019
</metadata>
<g transform="translate(0.0a0607,64.0a0607) scale(0.100000,-0.100000)"
fill="#0a0607" stroke="none">
<path d="M103 438 c-12 -84 -18 -156 -15 -159 6 -5 384 -79 405 -79 13 0 7 54
-10 92 -17 38 -19 39 -63 37 -25 -2 -51 1 -58 5 -7 4 -16 5 -22 1 -15 -9 -60
6 -60 20 0 15 -54 45 -81 45 -10 0 -27 13 -38 29 -28 39 -30 135 -3 150 15 9
14 10 -8 11 -25 0 -26 -2 -47 -152z m47 -55 c0 -3 -7 0 -15 7 -8 7 -15 24 -15
39 1 25 1 25 15 -8 8 -18 15 -36 15 -38z"/>
<path d="M498 533 c6 -2 18 -2 25 0 6 3 1 5 -13 5 -14 0 -19 -2 -12 -5z"/>
<path d="M305 182 c11 -11 117 -43 123 -37 10 10 -11 23 -45 30 -21 3 -49 9
-63 12 -17 4 -22 2 -15 -5z"/>
</g>
</svg>
