<?xml version="1.0" standalone="no"?>
<!DOCTYPE svg PUBLIC "-//W3C//DTD SVG 20010904//EN"
 "http://www.w3.org/TR/2001/REC-SVG-20010904/DTD/svg10.dtd">
<svg version="1.0" xmlns="http://www.w3.org/2000/svg"
 width="171.000000pt" height="171.000000pt" viewBox="0 0 171.000000 171.000000"
 preserveAspectRatio="xMidYMid meet">
<metadata>
Created by potrace 1.16, written by Peter Selinger 2001-2019
</metadata>
<g transform="translate(0.000000,171.000000) scale(0.100000,-0.100000)"
fill="#000000" stroke="none">
<path d="M472 1228 c6 -18 28 -21 28 -4 0 9 -7 16 -16 16 -9 0 -14 -5 -12 -12z"/>
<path d="M1016 1018 c-3 -13 -6 -35 -6 -50 0 -26 3 -28 45 -28 25 0 45 5 45
10 0 6 18 10 41 10 45 0 45 15 -1 25 -40 9 -90 34 -90 46 0 19 -28 8 -34 -13z"/>
<path d="M1289 646 c-18 -62 -10 -71 32 -37 28 21 109 64 114 59 3 -3 -45 -36
-130 -90 -25 -16 -50 -43 -65 -73 -16 -31 -40 -58 -67 -75 -39 -25 -41 -28
-28 -48 18 -25 11 -46 -22 -67 -13 -9 -23 -19 -20 -21 5 -5 63 30 260 159 117
77 114 72 101 170 -7 52 -22 61 -109 72 l-50 6 -16 -55z m70 -110 c9 -10 6
-17 -13 -30 -14 -9 -28 -16 -30 -16 -10 0 -27 41 -21 50 9 15 51 12 64 -4z"/>
<path d="M430 647 c0 -16 -35 -134 -58 -197 -9 -25 -17 -49 -17 -54 0 -9 174
-56 208 -56 11 0 15 5 11 11 -8 13 33 3 54 -13 8 -7 12 -7 12 1 0 6 -11 16
-24 20 -26 11 -42 41 -26 51 11 7 62 6 193 -5 68 -6 77 -4 77 10 0 11 -5 15
-15 11 -8 -3 -15 -1 -15 5 0 6 -7 9 -15 5 -8 -3 -15 0 -15 7 0 8 -3 8 -9 -2
-6 -9 -11 -10 -15 -2 -9 13 -84 51 -103 51 -8 0 -25 7 -39 16 -13 9 -27 14
-30 11 -6 -5 -17 3 -81 57 -27 23 -33 34 -28 54 4 17 2 23 -7 19 -7 -2 -12
-13 -11 -23 1 -16 -3 -14 -23 9 -14 16 -24 22 -24 14z"/>
<path d="M355 592 c-6 -5 -52 -26 -102 -47 -84 -35 -91 -40 -78 -55 8 -9 15
-35 15 -57 0 -39 1 -41 43 -51 56 -15 68 -2 108 111 30 86 34 117 14 99z"/>
<path d="M1098 563 c7 -3 16 -2 19 1 4 3 -2 6 -13 5 -11 0 -14 -3 -6 -6z"/>
<path d="M1110 540 c0 -6 7 -10 15 -10 8 0 15 2 15 4 0 2 -7 6 -15 10 -8 3
-15 1 -15 -4z"/>
</g>
</svg>
