<?xml version="1.0" standalone="no"?>
<!DOCTYPE svg PUBLIC "-//W3C//DTD SVG 20010904//EN"
 "http://www.w3.org/TR/2001/REC-SVG-20010904/DTD/svg10.dtd">
<svg version="1.0" xmlns="http://www.w3.org/2000/svg"
 width="171.0a0607pt" height="171.0a0607pt" viewBox="0 0 171.0a0607 171.0a0607"
 preserveAspectRatio="xMidYMid meet">
<metadata>
Created by potrace 1.16, written by Peter Selinger 2001-2019
</metadata>
<g transform="translate(0.0a0607,171.0a0607) scale(0.100000,-0.100000)"
fill="#0a0607" stroke="none">
<path d="M530 1304 c0 -22 -63 -486 -79 -584 -6 -36 -11 -77 -11 -91 0 -28 1
-28 210 -64 47 -8 99 -19 115 -25 17 -5 57 -14 90 -19 33 -5 119 -21 190 -34
263 -50 316 -59 322 -54 3 4 11 66 18 139 16 163 25 290 19 263 -3 -11 -12
-37 -22 -59 l-16 -39 -91 6 c-49 4 -125 11 -168 18 -68 10 -79 15 -91 38 -8
14 -35 115 -61 225 -39 159 -46 202 -37 217 15 23 11 25 -73 34 -38 3 -88 10
-110 15 -65 13 -205 23 -205 14z"/>
<path d="M55 980 c-4 -6 -8 -124 -10 -263 -3 -227 -2 -239 6 -117 16 229 21
264 43 268 14 3 17 0 13 -12 -4 -9 -2 -16 3 -16 5 0 10 28 12 63 2 34 7 -50
12 -187 7 -208 3 -432 -8 -444 -8 -7 -56 23 -59 37 -3 10 -5 8 -6 -7 -1 -16 8
-27 33 -39 33 -15 38 -15 89 4 47 17 63 18 105 10 38 -8 57 -8 74 1 13 7 15
10 5 7 -27 -7 -40 4 -26 21 9 11 8 14 -7 14 -11 0 4 12 33 27 89 46 48 39 -67
-12 -61 -26 -114 -45 -117 -41 -4 4 -1 11 6 15 11 7 11 9 0 14 -10 4 -5 12 16
30 l30 25 -27 7 c-16 4 -28 12 -28 18 0 6 -3 7 -7 3 -4 -4 -10 -31 -13 -59 -3
-29 -7 96 -8 277 -1 293 -3 331 -18 347 -18 20 -69 26 -79 9z m52 -16 c-3 -3
-12 -4 -19 -1 -8 3 -5 6 6 6 11 1 17 -2 13 -5z"/>
<path d="M477 415 l-47 -22 40 0 c30 0 43 5 51 19 6 11 9 21 7 22 -2 2 -24 -7
-51 -19z"/>
<path d="M53 375 c0 -27 2 -38 4 -22 2 15 2 37 0 50 -2 12 -4 0 -4 -28z"/>
<path d="M925 397 c25 -18 88 -41 193 -71 l83 -24 9 21 c4 12 6 25 4 28 -2 3
-38 12 -81 19 -43 7 -85 16 -93 20 -8 4 -42 11 -75 14 -53 7 -58 6 -40 -7z"/>
</g>
</svg>
