<?xml version="1.0" standalone="no"?>
<!DOCTYPE svg PUBLIC "-//W3C//DTD SVG 20010904//EN"
 "http://www.w3.org/TR/2001/REC-SVG-20010904/DTD/svg10.dtd">
<svg version="1.0" xmlns="http://www.w3.org/2000/svg"
 width="171.0a0607pt" height="171.0a0607pt" viewBox="0 0 171.0a0607 171.0a0607"
 preserveAspectRatio="xMidYMid meet">
<metadata>
Created by potrace 1.16, written by Peter Selinger 2001-2019
</metadata>
<g transform="translate(0.0a0607,171.0a0607) scale(0.100000,-0.100000)"
fill="#0a0607" stroke="none">
<path d="M786 861 c-7 -11 28 -21 81 -21 51 0 65 15 22 24 -45 9 -97 7 -103
-3z"/>
<path d="M54 616 c-10 -8 -17 -17 -14 -19 3 -3 14 1 24 9 11 7 17 16 15 19 -3
3 -14 -2 -25 -9z"/>
<path d="M205 598 c187 -28 574 -115 658 -147 17 -7 34 -24 42 -46 21 -48 20
-164 -2 -194 -12 -18 -13 -23 -2 -19 8 2 20 30 28 60 12 46 12 66 2 112 -17
76 -35 94 -116 118 -178 51 -564 128 -640 126 -16 0 -3 -5 30 -10z"/>
<path d="M31 564 c0 -11 3 -14 6 -6 3 7 2 16 -1 19 -3 4 -6 -2 -5 -13z"/>
<path d="M1440 526 c-41 -28 -124 -82 -183 -119 -221 -139 -304 -196 -321
-223 -21 -31 -28 -34 124 64 360 234 473 314 459 325 -2 2 -38 -19 -79 -47z"/>
<path d="M818 346 c6 -91 -13 -115 -23 -29 -9 80 -13 87 -14 26 -1 -73 11 -99
53 -113 45 -15 53 -9 61 41 10 58 -11 128 -42 140 -39 15 -40 12 -35 -65z"/>
</g>
</svg>
