<?xml version="1.0" standalone="no"?>
<!DOCTYPE svg PUBLIC "-//W3C//DTD SVG 20010904//EN"
 "http://www.w3.org/TR/2001/REC-SVG-20010904/DTD/svg10.dtd">
<svg version="1.0" xmlns="http://www.w3.org/2000/svg"
 width="171.000000pt" height="171.000000pt" viewBox="0 0 171.000000 171.000000"
 preserveAspectRatio="xMidYMid meet">
<metadata>
Created by potrace 1.16, written by Peter Selinger 2001-2019
</metadata>
<g transform="translate(0.000000,171.000000) scale(0.100000,-0.100000)"
fill="#000000" stroke="none">
<path d="M780 1224 c41 -7 90 -16 108 -19 17 -3 32 -2 32 4 0 11 -112 31 -171
30 -39 -1 -35 -3 31 -15z"/>
<path d="M938 1123 c6 -2 18 -2 25 0 6 3 1 5 -13 5 -14 0 -19 -2 -12 -5z"/>
<path d="M1018 1113 c7 -3 16 -2 19 1 4 3 -2 6 -13 5 -11 0 -14 -3 -6 -6z"/>
<path d="M747 923 c-7 -6 -10 -133 -4 -133 9 0 124 -22 140 -26 9 -3 17 -1 17
4 0 5 -9 12 -21 15 -12 3 -18 10 -14 17 4 7 24 8 57 4 65 -9 58 8 -13 31 -61
21 -129 64 -129 82 0 14 -22 18 -33 6z"/>
</g>
</svg>
