<?xml version="1.0" standalone="no"?>
<!DOCTYPE svg PUBLIC "-//W3C//DTD SVG 20010904//EN"
 "http://www.w3.org/TR/2001/REC-SVG-20010904/DTD/svg10.dtd">
<svg version="1.0" xmlns="http://www.w3.org/2000/svg"
 width="171.000000pt" height="171.000000pt" viewBox="0 0 171.000000 171.000000"
 preserveAspectRatio="xMidYMid meet">
<metadata>
Created by potrace 1.16, written by Peter Selinger 2001-2019
</metadata>
<g transform="translate(0.000000,171.000000) scale(0.100000,-0.100000)"
fill="#000000" stroke="none">
<path d="M765 1242 c-43 -26 -83 -83 -106 -149 -19 -56 -19 -57 0 -76 18 -18
19 -18 26 19 9 49 38 106 86 172 43 56 41 62 -6 34z"/>
<path d="M560 383 c-41 -31 -78 -61 -82 -67 -10 -15 -10 -64 0 -70 6 -4 94 99
155 182 16 21 4 14 -73 -45z"/>
</g>
</svg>
