<?xml version="1.0" standalone="no"?>
<!DOCTYPE svg PUBLIC "-//W3C//DTD SVG 20010904//EN"
 "http://www.w3.org/TR/2001/REC-SVG-20010904/DTD/svg10.dtd">
<svg version="1.0" xmlns="http://www.w3.org/2000/svg"
 width="171.0a0607pt" height="171.0a0607pt" viewBox="0 0 171.0a0607 171.0a0607"
 preserveAspectRatio="xMidYMid meet">
<metadata>
Created by potrace 1.16, written by Peter Selinger 2001-2019
</metadata>
<g transform="translate(0.0a0607,171.0a0607) scale(0.100000,-0.100000)"
fill="#0a0607" stroke="none">
<path d="M745 1520 c-82 -5 -193 -9 -245 -11 -52 -1 -108 -5 -125 -9 l-30 -6
32 -17 c28 -15 52 -17 160 -12 71 3 147 8 171 10 25 3 41 1 37 -4 -8 -14 10
-22 31 -14 16 6 16 7 -2 14 -13 5 -5 8 26 8 43 1 46 -1 56 -34 6 -19 9 -37 7
-39 -3 -2 -19 0 -36 5 -82 23 -185 -1 -206 -49 -12 -25 -10 -29 23 -59 l36
-33 -29 0 c-22 0 -31 7 -41 30 -7 17 -19 30 -26 30 -11 0 -14 -19 -14 -80 l0
-80 82 0 c45 0 97 5 115 12 27 10 38 10 53 0 24 -15 50 -16 50 -2 0 6 19 10
43 10 33 -1 46 -6 60 -25 26 -37 14 -45 -44 -30 -58 15 -139 10 -182 -12 -38
-19 -32 -50 13 -74 30 -17 32 -19 11 -19 -13 0 -36 11 -53 25 -22 18 -41 25
-73 25 -48 0 -63 -11 -40 -30 8 -7 15 -22 15 -34 l-1 -21 -18 23 c-11 12 -22
22 -25 22 -3 0 -6 -90 -6 -200 0 -182 -2 -202 -19 -219 -10 -10 -23 -20 -30
-22 -7 -3 -13 -67 -17 -185 l-7 -181 54 -12 c30 -6 63 -14 75 -17 25 -7 47 32
31 57 -6 9 -7 24 -3 34 5 15 14 16 60 11 51 -7 55 -6 90 27 30 28 38 32 47 20
10 -11 7 -18 -9 -34 -33 -30 -27 -43 26 -61 102 -35 92 -41 92 61 0 49 -4 93
-10 96 -5 3 -10 14 -10 23 0 14 2 14 9 3 6 -9 9 12 10 59 0 40 3 81 6 91 5 14
2 19 -12 18 -27 -1 -71 -17 -52 -18 18 -1 49 -42 49 -63 0 -7 -12 -21 -25 -31
-24 -17 -25 -17 -37 3 -7 11 -16 20 -19 20 -10 0 3 -54 15 -62 16 -11 0 -21
-22 -14 -25 8 -62 40 -62 54 0 6 -3 13 -7 15 -5 3 -9 -18 -10 -46 -3 -55 -18
-82 -33 -57 -8 13 -11 12 -24 -5 -15 -20 -15 -20 -30 0 -8 11 -16 32 -16 47 0
15 -4 30 -10 33 -17 10 -11 25 13 34 49 20 104 70 126 116 27 58 22 127 -15
191 -30 50 -30 62 -2 73 32 12 58 2 58 -23 0 -20 1 -20 21 4 12 15 22 20 25
14 4 -9 13 -8 35 3 17 8 32 13 33 12 2 -2 6 -25 9 -51 5 -35 3 -47 -8 -52 -9
-3 -12 0 -8 10 6 17 -8 19 -25 2 -19 -19 -14 -26 16 -30 30 -3 52 25 52 69 0
60 55 108 78 68 7 -14 11 -14 40 0 17 9 36 14 41 10 5 -3 11 7 13 22 3 26 7
28 53 33 l49 5 -27 18 c-111 72 -197 214 -244 402 l-28 110 -40 1 c-22 1 -107
-2 -190 -6z m205 -61 c0 -15 -5 -20 -22 -17 -34 5 -37 38 -4 38 20 0 26 -5 26
-21z m-72 -100 c17 -26 7 -42 -19 -29 -11 6 -19 21 -19 35 0 28 19 25 38 -6z
m-93 11 c3 -5 12 -7 20 -3 12 4 13 1 6 -18 -6 -17 -16 -23 -31 -21 -13 1 -29
-3 -36 -9 -20 -16 -19 10 2 39 16 24 29 28 39 12z m185 -5 c11 -13 8 -15 -19
-15 -30 0 -39 9 -24 23 11 11 30 8 43 -8z m-170 -86 c0 -10 -34 -12 -43 -2 -4
3 -2 12 4 20 9 10 15 10 25 2 8 -6 14 -15 14 -20z m60 17 c0 -8 -4 -18 -10
-21 -5 -3 -10 3 -10 14 0 12 5 21 10 21 6 0 10 -6 10 -14z m143 -20 c3 -8 3
-17 0 -20 -7 -7 -43 -8 -43 -2 0 2 -3 11 -6 20 -5 12 0 16 19 16 14 0 27 -6
30 -14z m-289 -51 c-4 -8 -9 -15 -13 -15 -4 0 -8 7 -8 15 0 8 6 15 13 15 8 0
11 -6 8 -15z m39 -12 c-7 -2 -19 -2 -25 0 -7 3 -2 5 12 5 14 0 19 -2 13 -5z
m295 -30 c6 -19 -45 -16 -52 3 -5 12 0 15 21 12 14 -2 28 -9 31 -15z m47 -63
c4 -6 -5 -10 -19 -10 -14 0 -26 5 -26 10 0 6 9 10 19 10 11 0 23 -4 26 -10z
m-180 -9 c-3 -5 1 -11 10 -13 25 -5 2 -25 -37 -31 -28 -4 -38 -2 -38 7 0 17
18 32 45 39 11 2 21 5 23 6 2 0 1 -3 -3 -8z m98 -19 c24 -21 14 -27 -22 -12
-37 15 -53 45 -18 34 12 -3 30 -13 40 -22z m110 -29 c-7 -2 -19 -2 -25 0 -7 3
-2 5 12 5 14 0 19 -2 13 -5z m-121 -35 c-9 -9 -12 -7 -12 12 0 19 3 21 12 12
9 -9 9 -15 0 -24z m-62 12 c12 -8 9 -10 -12 -10 -16 0 -28 5 -28 10 0 13 20
13 40 0z m-200 -684 c0 -3 -4 -8 -10 -11 -5 -3 -10 -1 -10 4 0 6 5 11 10 11 6
0 10 -2 10 -4z m170 -27 c0 -5 -9 -9 -20 -9 -19 0 -26 11 -14 23 8 8 34 -3 34
-14z m6 -66 c-10 -10 -19 5 -10 18 6 11 8 11 12 0 2 -7 1 -15 -2 -18z"/>
<path d="M938 717 l-37 -32 34 -16 33 -16 4 46 c3 25 4 47 4 48 -1 0 -18 -13
-38 -30z"/>
<path d="M1032 610 c0 -14 2 -19 5 -12 2 6 2 18 0 25 -3 6 -5 1 -5 -13z"/>
<path d="M1023 355 c0 -44 2 -61 4 -37 2 23 2 59 0 80 -2 20 -4 1 -4 -43z"/>
<path d="M1264 245 c0 -55 1 -76 3 -47 2 29 2 74 0 100 -2 26 -3 2 -3 -53z"/>
</g>
</svg>
