<?xml version="1.0" standalone="no"?>
<!DOCTYPE svg PUBLIC "-//W3C//DTD SVG 20010904//EN"
 "http://www.w3.org/TR/2001/REC-SVG-20010904/DTD/svg10.dtd">
<svg version="1.0" xmlns="http://www.w3.org/2000/svg"
 width="16.000000pt" height="16.000000pt" viewBox="0 0 16.000000 16.000000"
 preserveAspectRatio="xMidYMid meet">
<metadata>
Created by potrace 1.16, written by Peter Selinger 2001-2019
</metadata>
<g transform="translate(0.000000,16.000000) scale(0.100000,-0.100000)"
fill="#000000" stroke="none">
<path d="M93 113 c15 -2 27 -7 27 -9 0 -12 -26 -30 -38 -26 -6 2 -12 -1 -12
-7 0 -11 13 -15 38 -12 16 2 15 -7 -3 -25 -8 -9 -19 -12 -25 -9 -5 3 -10 1
-10 -4 0 -6 18 -11 40 -11 l40 0 0 55 0 55 -42 -1 c-30 -2 -35 -3 -15 -6z"/>
</g>
</svg>
