<?xml version="1.0" standalone="no"?>
<!DOCTYPE svg PUBLIC "-//W3C//DTD SVG 20010904//EN"
 "http://www.w3.org/TR/2001/REC-SVG-20010904/DTD/svg10.dtd">
<svg version="1.0" xmlns="http://www.w3.org/2000/svg"
 width="16.000000pt" height="16.000000pt" viewBox="0 0 16.000000 16.000000"
 preserveAspectRatio="xMidYMid meet">
<metadata>
Created by potrace 1.16, written by Peter Selinger 2001-2019
</metadata>
<g transform="translate(0.000000,16.000000) scale(0.100000,-0.100000)"
fill="#000000" stroke="none">
<path d="M97 94 c-4 -4 -7 -16 -7 -26 0 -10 -5 -18 -12 -18 -6 0 -1 -11 12
-25 l24 -25 23 22 c13 12 19 24 14 27 -5 3 -10 15 -12 26 -4 20 -29 31 -42 19z
m35 -34 c5 -33 -12 -56 -28 -40 -14 14 -5 70 11 70 7 0 15 -14 17 -30z"/>
</g>
</svg>
