<?xml version="1.0" standalone="no"?>
<!DOCTYPE svg PUBLIC "-//W3C//DTD SVG 20010904//EN"
 "http://www.w3.org/TR/2001/REC-SVG-20010904/DTD/svg10.dtd">
<svg version="1.0" xmlns="http://www.w3.org/2000/svg"
 width="171.0a0607pt" height="171.0a0607pt" viewBox="0 0 171.0a0607 171.0a0607"
 preserveAspectRatio="xMidYMid meet">
<metadata>
Created by potrace 1.16, written by Peter Selinger 2001-2019
</metadata>
<g transform="translate(0.0a0607,171.0a0607) scale(0.100000,-0.100000)"
fill="#0a0607" stroke="none">
<path d="M556 1118 c8 -48 14 -62 14 -30 0 13 6 22 15 22 20 0 19 20 -2 36
-29 22 -34 16 -27 -28z"/>
<path d="M618 1145 c-3 -4 0 -26 8 -49 24 -70 7 -476 -21 -504 -11 -11 -46 40
-43 62 2 11 13 26 26 32 21 10 21 12 6 25 -14 11 -18 11 -30 -6 -8 -10 -14
-28 -14 -40 0 -27 -43 -193 -69 -269 -23 -64 -28 -126 -10 -126 6 0 25 -7 42
-15 59 -27 538 -187 544 -181 11 11 53 121 53 139 0 11 6 33 14 50 13 30 35
144 58 302 14 104 11 436 -4 452 -7 7 -124 37 -259 67 -135 30 -257 58 -270
61 -14 3 -27 3 -31 0z m217 -96 c50 -11 116 -24 148 -31 43 -9 57 -16 57 -29
0 -20 26 -33 36 -17 4 5 0 14 -7 19 -23 14 7 11 46 -5 22 -9 35 -22 35 -33 0
-10 3 -43 6 -73 5 -49 4 -53 -8 -33 -35 58 -125 95 -179 73 -46 -20 -63 -98
-35 -165 16 -38 16 -38 -8 -29 -12 4 -16 20 -16 55 0 40 -5 53 -27 74 l-28 25
-18 -22 -18 -23 6 26 c5 21 2 27 -15 32 -18 5 -21 2 -18 -20 2 -15 -2 -28 -9
-30 -8 -3 -13 11 -15 39 -3 39 -6 43 -30 46 -28 3 -28 4 -28 79 0 68 2 74 18
68 9 -4 58 -16 107 -26z m-97 -180 c2 -39 0 -50 -10 -47 -14 5 -23 60 -14 84
11 28 21 13 24 -37z m332 -85 c0 -36 -13 -45 -24 -18 -5 13 -9 14 -20 5 -24
-20 -26 3 -4 37 16 26 23 30 34 21 8 -6 14 -27 14 -45z m60 16 c0 -10 4 -21 9
-24 10 -7 3 -46 -9 -46 -12 0 -20 27 -20 66 0 21 4 33 10 29 6 -3 10 -15 10
-25z m-370 -69 c0 -6 -4 -13 -10 -16 -5 -3 -10 1 -10 9 0 9 5 16 10 16 6 0 10
-4 10 -9z m290 -33 c0 -26 -2 -29 -15 -18 -15 13 -20 42 -9 53 13 12 24 -4 24
-35z m46 -26 c-20 -20 -22 -1 -4 31 11 20 12 21 16 3 2 -10 -3 -26 -12 -34z
m-121 -12 c3 -5 -1 -10 -9 -10 -9 0 -16 5 -16 10 0 6 4 10 9 10 6 0 13 -4 16
-10z m-374 -92 c3 -28 -3 -54 -15 -66 -10 -10 -16 -9 -30 7 -26 29 -14 71 19
71 14 0 26 -6 26 -12z m178 -59 c54 -2 76 -14 98 -54 13 -22 49 -12 58 16 10
29 22 23 35 -18 7 -21 16 -42 21 -47 5 -5 4 -15 -2 -23 -9 -9 -8 -17 1 -28 19
-23 39 -18 46 11 8 29 37 64 55 64 13 0 8 -57 -11 -149 l-12 -53 -30 36 c-55
66 -156 72 -203 11 -14 -19 -25 -39 -25 -46 0 -12 -14 -4 -16 9 0 4 -6 19 -14
35 -12 25 -22 32 -44 28 -19 -4 -44 11 -49 29 -3 11 -15 20 -31 22 -25 3 -26
4 -11 32 8 16 18 46 21 67 4 22 10 39 15 39 5 0 9 7 9 16 0 10 6 13 18 10 9
-3 41 -6 71 -7z m-204 -66 c-8 -36 -20 -47 -39 -40 -10 4 -16 18 -16 37 0 27
3 30 31 30 29 0 31 -2 24 -27z m-45 -83 c16 -9 17 -15 8 -40 -11 -34 -16 -36
-43 -16 -17 12 -18 18 -7 40 13 29 16 30 42 16z m430 -170 c0 -32 -9 -36 -42
-19 l-21 11 24 19 c33 25 39 24 39 -11z m70 -15 c0 -24 -5 -35 -15 -35 -18 0
-20 41 -3 58 17 17 18 16 18 -23z"/>
<path d="M789 939 c13 -11 27 -17 30 -13 7 7 -28 34 -43 34 -6 -1 0 -10 13
-21z"/>
<path d="M681 367 c21 -39 69 -63 69 -34 0 12 -30 36 -63 49 -15 7 -16 5 -6
-15z"/>
<path d="M1273 680 c0 -41 2 -58 4 -37 2 20 2 54 0 75 -2 20 -4 3 -4 -38z"/>
<path d="M1232 375 c0 -16 2 -22 5 -12 2 9 2 23 0 30 -3 6 -5 -1 -5 -18z"/>
<path d="M1212 305 c-7 -14 -12 -36 -11 -48 0 -13 6 -4 14 23 16 50 14 63 -3
25z"/>
<path d="M1155 290 c3 -5 10 -10 16 -10 5 0 9 5 9 10 0 6 -7 10 -16 10 -8 0
-12 -4 -9 -10z"/>
<path d="M1187 203 c-2 -10 -8 -26 -12 -35 -4 -10 -3 -18 3 -18 5 0 12 14 16
32 7 34 2 50 -7 21z"/>
<path d="M1142 70 c-6 -10 -8 -21 -3 -24 5 -3 11 4 14 16 8 29 4 32 -11 8z"/>
</g>
</svg>
