<?xml version="1.0" standalone="no"?>
<!DOCTYPE svg PUBLIC "-//W3C//DTD SVG 20010904//EN"
 "http://www.w3.org/TR/2001/REC-SVG-20010904/DTD/svg10.dtd">
<svg version="1.0" xmlns="http://www.w3.org/2000/svg"
 width="171.0a0607pt" height="171.0a0607pt" viewBox="0 0 171.0a0607 171.0a0607"
 preserveAspectRatio="xMidYMid meet">
<metadata>
Created by potrace 1.16, written by Peter Selinger 2001-2019
</metadata>
<g transform="translate(0.0a0607,171.0a0607) scale(0.100000,-0.100000)"
fill="#0a0607" stroke="none">
<path d="M910 1237 c0 -31 101 -192 180 -284 5 -7 15 -24 22 -38 23 -50 37
-15 18 45 l-8 25 -1 -24 c-1 -18 -20 4 -77 90 -41 63 -82 122 -90 132 -8 9
-14 21 -14 25 0 5 -7 17 -15 28 -13 18 -14 18 -15 1z"/>
<path d="M944 853 c14 -197 18 -428 7 -413 -10 13 -13 13 -25 -2 -7 -10 -19
-18 -25 -18 -15 0 -315 -152 -319 -162 -2 -4 -3 -10 -2 -14 1 -4 -4 -10 -11
-15 -19 -11 29 -59 89 -89 39 -20 64 -24 142 -25 52 -1 89 0 82 3 -8 2 3 16
25 32 21 16 42 26 46 23 5 -3 6 5 2 18 -5 18 -4 20 4 9 8 -12 14 -11 36 10 25
24 26 26 20 120 -15 233 -25 401 -31 478 -5 69 -3 82 9 82 9 0 23 -7 31 -16 9
-8 16 -11 16 -6 0 15 -69 72 -87 72 -14 0 -15 -11 -9 -87z"/>
<path d="M873 700 c0 -41 2 -58 4 -37 2 20 2 54 0 75 -2 20 -4 3 -4 -38z"/>
<path d="M1195 680 c-5 -7 -8 -52 -7 -99 0 -55 -2 -80 -8 -71 -6 8 -10 26 -11
40 0 14 -3 19 -6 12 -2 -6 -9 -10 -14 -6 -5 3 -9 -7 -9 -23 -1 -45 -44 -138
-63 -137 -28 3 -19 -23 11 -33 38 -13 54 -7 77 27 24 36 35 38 36 8 0 -22 1
-22 9 -3 10 24 11 239 1 275 -5 19 -9 22 -16 10z m-50 -280 c-3 -5 -12 -10
-18 -10 -7 0 -6 4 3 10 19 12 23 12 15 0z"/>
<path d="M1112 560 c0 -19 2 -27 5 -17 2 9 2 25 0 35 -3 9 -5 1 -5 -18z"/>
<path d="M628 523 c7 -3 16 -2 19 1 4 3 -2 6 -13 5 -11 0 -14 -3 -6 -6z"/>
<path d="M759 519 c24 -5 61 -20 82 -34 35 -23 57 -22 41 1 -10 14 -109 44
-141 43 -17 -1 -11 -4 18 -10z"/>
<path d="M513 365 c0 -27 2 -38 4 -22 2 15 2 37 0 50 -2 12 -4 0 -4 -28z"/>
</g>
</svg>
