<?xml version="1.0" standalone="no"?>
<!DOCTYPE svg PUBLIC "-//W3C//DTD SVG 20010904//EN"
 "http://www.w3.org/TR/2001/REC-SVG-20010904/DTD/svg10.dtd">
<svg version="1.0" xmlns="http://www.w3.org/2000/svg"
 width="171.0a0607pt" height="171.0a0607pt" viewBox="0 0 171.0a0607 171.0a0607"
 preserveAspectRatio="xMidYMid meet">
<metadata>
Created by potrace 1.16, written by Peter Selinger 2001-2019
</metadata>
<g transform="translate(0.0a0607,171.0a0607) scale(0.100000,-0.100000)"
fill="#0a0607" stroke="none">
<path d="M925 1130 c-16 -4 -66 -15 -109 -25 -44 -10 -94 -26 -110 -37 l-31
-20 30 5 c17 2 59 10 94 18 l64 14 20 -27 20 -26 38 44 c55 63 52 72 -16 54z"/>
<path d="M1140 1059 c-46 -19 -44 -49 5 -70 13 -6 -6 -8 -58 -6 -73 2 -91 -3
-66 -19 6 -3 54 -10 107 -14 110 -8 132 -23 132 -90 0 -69 -12 -102 -54 -146
-47 -48 -97 -63 -158 -47 l-38 10 6 -36 c10 -59 27 -85 69 -107 24 -13 38 -27
36 -35 -2 -8 -5 -41 -6 -74 -1 -33 0 -45 2 -27 4 33 5 33 43 27 47 -8 91 11
153 65 23 21 54 40 67 42 25 4 25 4 -6 20 -35 19 -40 27 -49 90 -6 40 -4 46
19 61 53 35 78 138 57 237 -14 65 -36 95 -85 115 -40 17 -138 19 -176 4z"/>
<path d="M608 1020 c-9 -14 -25 -43 -34 -65 l-18 -40 -6 30 c-6 29 -6 29 -14
-12 -14 -80 11 -166 58 -197 15 -9 26 -25 26 -35 0 -17 19 -39 47 -55 9 -5 11
1 7 23 -5 26 -3 31 19 36 l25 7 -34 50 c-19 27 -34 56 -34 63 0 8 -11 35 -25
61 -29 54 -31 79 -9 92 10 6 14 19 12 38 l-3 29 -17 -25z"/>
<path d="M892 833 c-12 -40 -27 -75 -32 -78 -11 -7 19 -45 36 -45 21 0 54 51
54 84 0 17 -9 49 -19 71 l-17 40 -22 -72z"/>
<path d="M730 701 c0 -12 39 -26 62 -22 12 1 20 -9 27 -36 6 -21 17 -47 25
-58 13 -18 15 -18 40 -1 35 22 49 56 30 75 -33 35 -184 69 -184 42z"/>
<path d="M467 394 c-3 -32 -4 -61 -1 -66 22 -36 358 -64 439 -36 52 17 55 44
5 40 -19 -2 -46 -10 -60 -16 -29 -15 -209 -11 -250 5 -16 6 -36 31 -55 67 -20
38 -37 58 -51 60 -19 3 -22 -3 -27 -54z"/>
<path d="M1563 385 c30 -110 40 -186 32 -226 -6 -28 -39 -54 -90 -70 -19 -7
-19 -7 2 -8 12 -1 25 3 28 9 3 5 15 10 26 10 34 0 59 36 59 84 0 58 -27 174
-47 200 -14 20 -15 20 -10 1z"/>
<path d="M1101 334 c0 -11 3 -14 6 -6 3 7 2 16 -1 19 -3 4 -6 -2 -5 -13z"/>
<path d="M1448 73 c6 -2 18 -2 25 0 6 3 1 5 -13 5 -14 0 -19 -2 -12 -5z"/>
</g>
</svg>
