<?xml version="1.0" standalone="no"?>
<!DOCTYPE svg PUBLIC "-//W3C//DTD SVG 20010904//EN"
 "http://www.w3.org/TR/2001/REC-SVG-20010904/DTD/svg10.dtd">
<svg version="1.0" xmlns="http://www.w3.org/2000/svg"
 width="171.000000pt" height="171.000000pt" viewBox="0 0 171.000000 171.000000"
 preserveAspectRatio="xMidYMid meet">
<metadata>
Created by potrace 1.16, written by Peter Selinger 2001-2019
</metadata>
<g transform="translate(0.000000,171.000000) scale(0.100000,-0.100000)"
fill="#000000" stroke="none">
<path d="M532 1223 c21 -8 35 -19 32 -24 -3 -5 4 -9 15 -9 11 0 23 5 26 10 3
6 0 10 -8 10 -8 0 -28 7 -43 15 -16 8 -36 15 -44 14 -8 0 2 -7 22 -16z"/>
<path d="M616 1193 c-7 -7 26 -18 124 -43 60 -15 43 -4 -34 24 -84 29 -80 29
-90 19z"/>
<path d="M508 1113 c6 -2 18 -2 25 0 6 3 1 5 -13 5 -14 0 -19 -2 -12 -5z"/>
<path d="M668 1073 c6 -2 18 -2 25 0 6 3 1 5 -13 5 -14 0 -19 -2 -12 -5z"/>
<path d="M1182 855 c0 -16 2 -22 5 -12 2 9 2 23 0 30 -3 6 -5 -1 -5 -18z"/>
<path d="M1181 754 c0 -11 3 -14 6 -6 3 7 2 16 -1 19 -3 4 -6 -2 -5 -13z"/>
<path d="M501 665 c-1 -19 -9 -35 -21 -43 -18 -11 -20 -23 -20 -132 l0 -119
43 -11 c89 -23 203 -59 282 -89 5 -2 -1 5 -15 16 -14 11 -38 25 -55 31 -18 6
-23 11 -12 11 10 1 36 -8 57 -18 22 -11 42 -15 45 -10 3 4 -9 12 -26 17 -35 8
-52 32 -24 32 9 0 13 5 9 11 -4 8 -9 8 -17 0 -19 -19 -57 -13 -57 8 0 11 -4
23 -10 26 -5 3 -7 0 -4 -8 7 -20 -15 -32 -29 -17 -9 10 -9 14 1 17 6 3 9 9 6
14 -4 6 -11 6 -19 -1 -9 -8 -15 -8 -20 0 -3 5 -1 10 4 10 6 0 11 5 11 10 0 6
-13 10 -30 10 -16 0 -30 5 -30 11 0 6 7 9 15 5 8 -3 15 -1 15 4 0 13 37 13 45
0 5 -8 11 -8 20 0 7 6 26 8 41 5 16 -3 56 -10 88 -16 32 -5 67 -14 76 -19 19
-10 100 -21 100 -14 0 3 -5 14 -10 25 -8 15 -17 18 -37 13 -17 -5 -24 -3 -19
4 9 15 -21 42 -47 42 -16 0 -18 -3 -8 -9 8 -5 9 -11 3 -15 -5 -3 -24 10 -41
30 -19 21 -38 34 -46 30 -8 -3 -22 5 -32 18 -22 27 -55 46 -81 46 -10 0 -29 9
-42 20 -13 11 -31 18 -41 15 -10 -3 -19 1 -23 11 -4 9 -12 14 -22 10 -8 -3
-13 -2 -11 2 3 4 1 16 -4 27 -6 17 -8 15 -8 -10z m129 -300 c7 -9 10 -18 6
-22 -3 -3 -6 -1 -6 5 0 6 -7 9 -15 6 -9 -4 -15 0 -15 10 0 20 14 21 30 1z m50
-35 c0 -5 -4 -10 -10 -10 -5 0 -10 5 -10 10 0 6 5 10 10 10 6 0 10 -4 10 -10z"/>
<path d="M1180 407 c0 -17 7 -26 22 -30 33 -9 35 1 5 29 l-27 25 0 -24z"/>
<path d="M1180 295 c0 -8 4 -15 10 -15 5 0 7 7 4 15 -4 8 -8 15 -10 15 -2 0
-4 -7 -4 -15z"/>
<path d="M468 283 c7 -3 16 -2 19 1 4 3 -2 6 -13 5 -11 0 -14 -3 -6 -6z"/>
<path d="M1272 255 c0 -16 2 -22 5 -12 2 9 2 23 0 30 -3 6 -5 -1 -5 -18z"/>
<path d="M1177 251 c-2 -10 -1 -24 3 -30 10 -17 32 12 24 33 -8 22 -21 20 -27
-3z"/>
</g>
</svg>
