<?xml version="1.0" standalone="no"?>
<!DOCTYPE svg PUBLIC "-//W3C//DTD SVG 20010904//EN"
 "http://www.w3.org/TR/2001/REC-SVG-20010904/DTD/svg10.dtd">
<svg version="1.0" xmlns="http://www.w3.org/2000/svg"
 width="171.0a0607pt" height="171.0a0607pt" viewBox="0 0 171.0a0607 171.0a0607"
 preserveAspectRatio="xMidYMid meet">
<metadata>
Created by potrace 1.16, written by Peter Selinger 2001-2019
</metadata>
<g transform="translate(0.0a0607,171.0a0607) scale(0.100000,-0.100000)"
fill="#0a0607" stroke="none">
<path d="M797 1043 c-4 -3 -6 -40 -5 -82 l1 -76 6 73 c4 49 11 76 21 82 13 9
13 10 -1 10 -9 0 -19 -3 -22 -7z"/>
<path d="M893 1043 c9 -2 25 -2 35 0 9 3 1 5 -18 5 -19 0 -27 -2 -17 -5z"/>
<path d="M1005 1030 c48 -19 50 -29 53 -279 2 -130 5 -242 7 -249 3 -9 10 -10
22 -3 17 8 18 27 13 243 -5 216 -6 235 -25 254 -23 25 -58 44 -77 43 -7 0 -4
-4 7 -9z"/>
<path d="M792 840 c0 -19 2 -27 5 -17 2 9 2 25 0 35 -3 9 -5 1 -5 -18z"/>
<path d="M792 750 c0 -19 2 -27 5 -17 2 9 2 25 0 35 -3 9 -5 1 -5 -18z"/>
<path d="M792 685 c0 -16 2 -22 5 -12 2 9 2 23 0 30 -3 6 -5 -1 -5 -18z"/>
<path d="M615 569 c8 -27 64 -128 65 -116 0 4 -11 30 -25 57 l-25 50 80 -4
c59 -2 80 0 80 9 0 7 -12 12 -27 12 -16 0 -57 3 -92 7 l-63 8 7 -23z"/>
<path d="M1030 424 c-148 -122 -191 -154 -206 -154 -20 0 -18 -5 39 -110 33
-59 59 -96 71 -98 22 -5 99 74 89 91 -3 5 -1 7 5 3 9 -5 97 86 187 193 11 14
35 42 54 63 32 37 33 38 10 36 -13 0 -42 4 -64 10 -22 7 -60 12 -85 11 -38 0
-53 -7 -100 -45z"/>
</g>
</svg>
