<?xml version="1.0" standalone="no"?>
<!DOCTYPE svg PUBLIC "-//W3C//DTD SVG 20010904//EN"
 "http://www.w3.org/TR/2001/REC-SVG-20010904/DTD/svg10.dtd">
<svg version="1.0" xmlns="http://www.w3.org/2000/svg"
 width="128.0a0607pt" height="128.0a0607pt" viewBox="0 0 128.0a0607 128.0a0607"
 preserveAspectRatio="xMidYMid meet">
<metadata>
Created by potrace 1.16, written by Peter Selinger 2001-2019
</metadata>
<g transform="translate(0.0a0607,128.0a0607) scale(0.100000,-0.100000)"
fill="#0a0607" stroke="none">
<path d="M880 977 c0 -9 -8 -17 -17 -17 -17 -1 -17 -1 0 -14 24 -19 21 -29 -8
-24 -15 3 -22 1 -18 -5 12 -20 1 -120 -18 -173 -22 -59 -70 -107 -136 -136
-35 -15 -61 -18 -138 -16 -63 3 -99 8 -107 17 -11 11 -10 12 1 6 9 -5 12 -4 7
3 -4 6 -13 9 -22 5 -17 -6 -56 25 -48 38 3 5 -1 23 -10 39 -8 17 -10 27 -4 24
7 -4 8 -2 4 5 -4 6 -15 10 -24 9 -10 -2 -16 3 -14 11 3 12 0 12 -12 1 -12 -9
-16 -9 -16 -1 0 7 -5 9 -10 6 -6 -4 -10 -12 -9 -18 3 -24 -1 -60 -6 -55 -3 3
-7 41 -10 85 -3 66 0 85 15 111 11 18 24 32 29 32 5 0 12 7 15 15 12 31 -50
-16 -78 -59 -94 -145 -85 -360 22 -501 21 -28 47 -51 60 -53 34 -5 151 55 204
104 41 38 44 44 25 44 -31 1 -58 23 -47 39 6 11 14 10 38 -8 31 -22 80 -27
110 -12 38 19 95 32 128 29 29 -2 38 2 50 22 l13 25 1 -28 c0 -17 4 -26 11
-22 6 4 9 1 8 -6 -4 -27 15 -52 55 -71 40 -19 40 -19 9 -14 -35 6 -41 -2 -20
-23 10 -10 9 -11 -5 -6 -19 7 -38 -20 -38 -54 0 -20 1 -21 36 -6 47 19 47 19
33 -8 -8 -16 -2 -13 25 13 44 41 103 157 112 219 l7 45 -29 -21 c-78 -55 -100
-48 -37 11 21 19 34 38 30 43 -5 4 -12 1 -17 -7 -6 -8 -10 -12 -10 -8 0 4 -14
2 -30 -4 -17 -5 -29 -16 -28 -23 3 -13 0 -15 -21 -15 -12 0 -25 135 -15 152 5
7 9 25 10 40 1 14 13 38 26 53 21 22 26 24 31 11 7 -18 32 -21 42 -6 4 6 -4
27 -16 46 -18 30 -23 34 -31 20 -7 -13 -13 -14 -29 -5 -19 10 -21 8 -17 -27 2
-30 -1 -39 -15 -42 -22 -4 -40 37 -24 56 8 10 7 16 -2 21 -7 5 -11 25 -10 49
2 23 0 45 -4 48 -4 4 -7 0 -7 -9z m-380 -471 c0 -2 -9 -2 -20 1 -11 3 -20 9
-20 15 0 5 9 4 20 -2 11 -6 20 -12 20 -14z"/>
<path d="M1072 680 c0 -19 2 -27 5 -17 2 9 2 25 0 35 -3 9 -5 1 -5 -18z"/>
<path d="M651 229 c-19 -16 -33 -19 -63 -14 -21 4 -57 4 -80 0 l-42 -7 30 -16
c43 -24 208 -28 257 -8 47 21 47 25 -2 19 -45 -6 -63 11 -35 32 18 13 17 14
-11 14 -16 0 -41 -9 -54 -20z"/>
</g>
</svg>
