<?xml version="1.0" standalone="no"?>
<!DOCTYPE svg PUBLIC "-//W3C//DTD SVG 20010904//EN"
 "http://www.w3.org/TR/2001/REC-SVG-20010904/DTD/svg10.dtd">
<svg version="1.0" xmlns="http://www.w3.org/2000/svg"
 width="171.0a0607pt" height="171.0a0607pt" viewBox="0 0 171.0a0607 171.0a0607"
 preserveAspectRatio="xMidYMid meet">
<metadata>
Created by potrace 1.16, written by Peter Selinger 2001-2019
</metadata>
<g transform="translate(0.0a0607,171.0a0607) scale(0.100000,-0.100000)"
fill="#0a0607" stroke="none">
<path d="M505 1566 c-129 -34 -143 -42 -156 -90 -20 -78 -38 -142 -84 -304
-26 -90 -45 -165 -43 -166 1 -2 16 -6 31 -10 19 -4 26 -3 22 4 -4 6 5 10 22
10 19 0 24 3 15 9 -10 6 -8 10 8 14 12 3 24 15 27 27 3 11 21 52 39 91 81 169
252 268 441 256 l84 -5 20 41 c24 47 23 48 -61 92 -117 60 -220 68 -365 31z"/>
<path d="M1609 1380 c-40 -23 -216 -60 -288 -61 -52 0 -68 -3 -50 -8 50 -16
71 -33 110 -94 38 -58 77 -168 96 -267 l8 -45 44 130 c56 169 103 334 99 345
-2 5 -10 5 -19 0z"/>
<path d="M1551 1034 c0 -11 3 -14 6 -6 3 7 2 16 -1 19 -3 4 -6 -2 -5 -13z"/>
<path d="M413 1033 c9 -2 23 -2 30 0 6 3 -1 5 -18 5 -16 0 -22 -2 -12 -5z"/>
<path d="M573 1033 c9 -2 23 -2 30 0 6 3 -1 5 -18 5 -16 0 -22 -2 -12 -5z"/>
<path d="M348 1023 c6 -2 18 -2 25 0 6 3 1 5 -13 5 -14 0 -19 -2 -12 -5z"/>
<path d="M628 1023 c7 -3 16 -2 19 1 4 3 -2 6 -13 5 -11 0 -14 -3 -6 -6z"/>
<path d="M1541 994 c0 -11 3 -14 6 -6 3 7 2 16 -1 19 -3 4 -6 -2 -5 -13z"/>
<path d="M1521 944 c0 -11 3 -14 6 -6 3 7 2 16 -1 19 -3 4 -6 -2 -5 -13z"/>
<path d="M252 911 c-64 -22 -66 -24 -81 -81 -7 -25 -20 -74 -30 -110 -56 -198
-91 -332 -91 -350 0 -25 11 -25 85 1 37 13 96 23 155 26 108 6 169 -7 262 -56
l56 -30 6 37 c9 56 8 59 -17 66 -34 8 -128 81 -165 129 -70 88 -112 201 -112
303 0 49 4 65 18 73 30 18 -26 13 -86 -8z"/>
<path d="M880 876 c0 -2 7 -7 16 -10 8 -3 12 -2 9 4 -6 10 -25 14 -25 6z"/>
<path d="M1425 828 c-27 -11 -81 -26 -120 -34 l-70 -14 65 5 c70 5 190 41 190
56 0 12 -6 11 -65 -13z"/>
<path d="M960 830 c8 -5 20 -10 25 -10 6 0 3 5 -5 10 -8 5 -19 10 -25 10 -5 0
-3 -5 5 -10z"/>
<path d="M1048 793 c7 -3 16 -2 19 1 4 3 -2 6 -13 5 -11 0 -14 -3 -6 -6z"/>
</g>
</svg>
