<?xml version="1.0" standalone="no"?>
<!DOCTYPE svg PUBLIC "-//W3C//DTD SVG 20010904//EN"
 "http://www.w3.org/TR/2001/REC-SVG-20010904/DTD/svg10.dtd">
<svg version="1.0" xmlns="http://www.w3.org/2000/svg"
 width="128.0a0607pt" height="128.0a0607pt" viewBox="0 0 128.0a0607 128.0a0607"
 preserveAspectRatio="xMidYMid meet">
<metadata>
Created by potrace 1.16, written by Peter Selinger 2001-2019
</metadata>
<g transform="translate(0.0a0607,128.0a0607) scale(0.100000,-0.100000)"
fill="#0a0607" stroke="none">
<path d="M416 812 c-10 -75 -27 -193 -36 -262 -10 -69 -17 -127 -14 -129 5 -5
654 -131 675 -131 17 0 28 65 44 245 4 49 3 54 -5 29 -17 -53 -26 -55 -141
-43 -57 6 -114 14 -125 19 -19 7 -28 33 -58 160 -41 171 -44 200 -19 200 45 0
-6 11 -113 25 -65 8 -135 17 -155 20 l-35 5 -18 -138z"/>
<path d="M77 703 c-4 -3 -7 -120 -7 -259 0 -248 0 -254 22 -274 26 -24 35 -25
83 -4 30 12 47 13 77 6 40 -10 47 -5 26 17 -10 11 -10 13 0 7 7 -4 12 -2 12 6
0 16 80 58 110 58 11 0 24 9 30 19 7 15 -21 5 -120 -40 -71 -32 -130 -59 -132
-59 -12 0 -4 42 8 47 13 5 13 7 2 14 -20 13 -28 11 -30 -8 -1 -10 -4 89 -7
220 -5 196 -9 239 -21 247 -18 11 -44 13 -53 3z m30 -55 c-2 -13 -4 -5 -4 17
-1 22 1 32 4 23 2 -10 2 -28 0 -40z m16 -42 c15 -12 17 -34 17 -209 0 -107 -3
-202 -6 -211 -10 -27 -24 -18 -25 17 -2 30 -2 30 -6 4 -2 -15 -9 -25 -14 -22
-13 9 -12 415 2 415 5 0 7 5 4 10 -9 14 7 12 28 -4z"/>
<path d="M101 564 c0 -11 3 -14 6 -6 3 7 2 16 -1 19 -3 4 -6 -2 -5 -13z"/>
<path d="M723 267 c9 -8 52 -26 95 -40 125 -40 118 -39 118 -17 0 22 -17 28
-131 50 -33 6 -69 14 -80 16 -19 5 -19 4 -2 -9z"/>
</g>
</svg>
