<?xml version="1.0" standalone="no"?>
<!DOCTYPE svg PUBLIC "-//W3C//DTD SVG 20010904//EN"
 "http://www.w3.org/TR/2001/REC-SVG-20010904/DTD/svg10.dtd">
<svg version="1.0" xmlns="http://www.w3.org/2000/svg"
 width="171.000000pt" height="171.000000pt" viewBox="0 0 171.000000 171.000000"
 preserveAspectRatio="xMidYMid meet">
<metadata>
Created by potrace 1.16, written by Peter Selinger 2001-2019
</metadata>
<g transform="translate(0.000000,171.000000) scale(0.100000,-0.100000)"
fill="#000000" stroke="none">
<path d="M885 1378 c-2 -7 -6 -26 -7 -43 l-3 -29 90 -12 c50 -6 118 -14 151
-18 l62 -7 4 38 c3 21 5 39 4 39 -1 1 -53 9 -116 18 -63 9 -130 19 -148 22
-21 3 -34 1 -37 -8z"/>
<path d="M625 1120 c-31 -38 -61 -70 -68 -70 -7 0 -18 9 -25 20 -12 19 -42 28
-42 12 0 -9 59 -92 66 -92 2 0 20 24 38 53 19 28 53 70 75 92 44 42 50 55 26
55 -8 0 -39 -31 -70 -70z"/>
<path d="M1545 967 c-9 -21 -17 -22 -110 -22 l-100 0 -12 -48 c-6 -26 -15 -72
-18 -101 -7 -52 -6 -54 20 -60 70 -18 199 -36 206 -29 8 8 33 272 27 278 -2 2
-8 -6 -13 -18z"/>
<path d="M955 461 c-6 -5 -35 -16 -65 -26 -30 -10 -64 -22 -74 -28 -18 -9 -17
-10 10 -22 16 -6 53 -18 81 -24 47 -11 52 -15 43 -31 -15 -27 -13 -29 23 -26
43 4 43 4 46 19 13 86 12 109 -4 128 -19 20 -45 25 -60 10z"/>
<path d="M367 354 c-12 -12 -8 -81 6 -92 13 -11 150 -43 380 -88 70 -14 139
-29 152 -34 23 -9 24 -8 13 15 -14 31 -8 38 23 26 19 -7 30 -4 47 9 38 31 24
60 -28 60 -11 0 -23 8 -29 17 -9 17 -10 17 -16 1 -8 -19 -35 -25 -35 -7 0 5
-3 8 -8 5 -15 -9 -434 67 -483 88 -8 4 -18 3 -22 0z"/>
</g>
</svg>
