<?xml version="1.0" standalone="no"?>
<!DOCTYPE svg PUBLIC "-//W3C//DTD SVG 20010904//EN"
 "http://www.w3.org/TR/2001/REC-SVG-20010904/DTD/svg10.dtd">
<svg version="1.0" xmlns="http://www.w3.org/2000/svg"
 width="171.000000pt" height="171.000000pt" viewBox="0 0 171.000000 171.000000"
 preserveAspectRatio="xMidYMid meet">
<metadata>
Created by potrace 1.16, written by Peter Selinger 2001-2019
</metadata>
<g transform="translate(0.000000,171.000000) scale(0.100000,-0.100000)"
fill="#000000" stroke="none">
<path d="M965 1408 c-159 -4 -402 -12 -540 -16 l-250 -7 -3 -399 c-1 -220 2
-404 6 -408 8 -8 143 -25 507 -63 77 -8 174 -19 215 -25 41 -5 138 -17 215
-25 77 -9 178 -20 224 -26 46 -5 85 -8 87 -7 1 2 4 60 6 129 l3 127 -50 -20
c-27 -11 -69 -27 -92 -35 -39 -14 -42 -17 -45 -56 l-3 -42 -45 1 c-53 1 -241
24 -252 30 -5 3 -8 66 -8 140 0 74 -3 134 -6 134 -3 0 -51 -45 -106 -100 -84
-84 -98 -102 -88 -115 7 -8 20 -15 29 -15 9 0 23 -5 31 -11 11 -7 1 -9 -35 -5
-27 3 -151 15 -274 25 -123 11 -225 21 -226 23 -3 3 -9 643 -6 664 1 8 142 13
475 16 l474 6 48 36 c26 20 51 36 55 36 5 0 9 5 9 10 0 6 -15 9 -32 8 -18 0
-163 -5 -323 -10z m-62 -825 c-7 -2 -21 -2 -30 0 -10 3 -4 5 12 5 17 0 24 -2
18 -5z m384 -39 c-3 -3 -12 -4 -19 -1 -8 3 -5 6 6 6 11 1 17 -2 13 -5z"/>
<path d="M1424 1404 c3 -9 6 -21 6 -27 0 -8 3 -8 11 0 13 13 5 43 -12 43 -6 0
-8 -7 -5 -16z"/>
<path d="M1037 955 c-10 -14 -27 -25 -37 -25 -11 0 -20 -4 -20 -10 0 -6 33
-10 80 -10 79 0 79 0 69 23 -8 19 -51 48 -68 47 -4 0 -14 -12 -24 -25z"/>
<path d="M1471 904 c0 -11 3 -14 6 -6 3 7 2 16 -1 19 -3 4 -6 -2 -5 -13z"/>
<path d="M1095 843 c-11 -3 -26 -10 -34 -17 -11 -8 -15 -8 -18 2 -6 17 -32 15
-39 -3 -4 -8 -10 -12 -15 -9 -5 3 -9 -35 -9 -87 0 -91 0 -92 20 -74 11 10 20
26 20 35 0 9 6 25 14 36 12 15 17 16 27 7 9 -9 18 -8 37 7 14 11 32 20 41 19
13 0 14 -2 1 -6 -18 -7 -44 -33 -34 -33 5 0 3 -5 -4 -12 -17 -17 -15 -26 6
-31 9 -3 0 -5 -20 -6 -28 -1 -42 -7 -54 -26 -9 -14 -23 -25 -30 -25 -8 0 -14
-9 -14 -20 0 -21 26 -28 32 -8 3 8 11 7 28 -5 27 -19 40 -21 40 -8 0 5 -11 12
-25 15 -28 7 -34 36 -7 36 10 0 28 -7 41 -16 18 -13 20 -18 10 -25 -21 -13 -2
-22 42 -21 58 3 65 11 33 38 -28 22 -28 23 -6 24 25 0 29 12 8 29 -15 12 -16
47 -2 69 4 7 1 15 -8 18 -8 3 -12 12 -10 19 3 7 1 16 -5 19 -6 4 -8 13 -4 21
7 21 -14 19 -26 -2 -6 -10 -11 -14 -11 -9 0 5 -8 2 -17 -5 -12 -10 -11 -4 6
24 12 20 19 36 14 36 -4 -1 -17 -4 -28 -6z"/>
<path d="M1483 500 c0 -25 2 -35 4 -22 2 12 2 32 0 45 -2 12 -4 2 -4 -23z"/>
<path d="M1471 434 c0 -11 3 -14 6 -6 3 7 2 16 -1 19 -3 4 -6 -2 -5 -13z"/>
<path d="M1245 143 c-20 -15 -19 -15 5 -9 14 3 28 6 33 6 4 0 7 5 7 10 0 15
-22 12 -45 -7z"/>
</g>
</svg>
