<?xml version="1.0" standalone="no"?>
<!DOCTYPE svg PUBLIC "-//W3C//DTD SVG 20010904//EN"
 "http://www.w3.org/TR/2001/REC-SVG-20010904/DTD/svg10.dtd">
<svg version="1.0" xmlns="http://www.w3.org/2000/svg"
 width="171.0a0607pt" height="171.0a0607pt" viewBox="0 0 171.0a0607 171.0a0607"
 preserveAspectRatio="xMidYMid meet">
<metadata>
Created by potrace 1.16, written by Peter Selinger 2001-2019
</metadata>
<g transform="translate(0.0a0607,171.0a0607) scale(0.100000,-0.100000)"
fill="#0a0607" stroke="none">
<path d="M360 1503 c0 -5 -9 -66 -19 -138 -11 -71 -21 -155 -23 -185 l-3 -55
50 -2 c28 -2 97 -7 155 -13 58 -5 141 -12 186 -16 l81 -6 7 48 c3 26 6 67 6
92 0 36 -3 43 -12 34 -7 -7 -42 -12 -89 -12 -74 0 -77 1 -87 28 -16 39 -52
187 -52 211 0 20 -5 21 -100 21 -55 0 -100 -3 -100 -7z"/>
<path d="M956 1473 c-13 -66 -55 -396 -51 -403 2 -4 42 -10 87 -14 46 -3 157
-13 248 -20 91 -8 168 -11 172 -8 4 4 10 45 14 92 l6 85 -99 -3 -100 -4 -16
64 c-30 115 -47 200 -42 208 9 14 -5 17 -112 24 l-101 7 -6 -28z"/>
<path d="M286 1018 c-7 -22 -46 -322 -46 -348 0 -24 5 -27 113 -48 184 -37
351 -62 358 -54 4 4 10 47 14 97 7 80 6 88 -7 74 -13 -12 -30 -14 -93 -8 -42
4 -79 10 -81 12 -11 11 -55 213 -51 233 4 21 -1 24 -67 34 -39 6 -86 13 -104
16 -21 3 -34 1 -36 -8z"/>
<path d="M875 913 c-4 -26 -15 -97 -25 -158 -31 -187 -34 -224 -19 -229 36
-11 491 -88 495 -84 3 4 24 155 24 180 0 16 -3 18 -14 9 -16 -14 -159 -3 -180
13 -16 12 -68 250 -59 272 5 15 -14 21 -92 29 -33 3 -74 8 -92 11 -31 5 -32 4
-38 -43z"/>
<path d="M875 420 l-60 -28 73 -22 c39 -12 72 -24 72 -27 0 -2 -14 -24 -30
-49 -29 -42 -50 -56 -50 -34 0 6 -15 10 -33 10 -17 0 -47 4 -65 9 -18 6 -110
24 -205 41 -95 16 -179 34 -189 40 -12 6 -18 5 -22 -6 -11 -27 -6 -81 7 -92
13 -11 150 -43 380 -88 70 -14 139 -29 153 -34 22 -9 24 -8 14 9 -5 11 -10 28
-10 37 0 14 3 15 12 6 18 -18 52 -14 77 9 28 26 23 43 -15 47 -44 5 -58 21
-39 42 9 10 24 16 35 13 24 -6 52 56 48 107 -3 34 -4 35 -48 37 -32 1 -63 -7
-105 -27z"/>
</g>
</svg>
