<?xml version="1.0" standalone="no"?>
<!DOCTYPE svg PUBLIC "-//W3C//DTD SVG 20010904//EN"
 "http://www.w3.org/TR/2001/REC-SVG-20010904/DTD/svg10.dtd">
<svg version="1.0" xmlns="http://www.w3.org/2000/svg"
 width="171.0a0607pt" height="171.0a0607pt" viewBox="0 0 171.0a0607 171.0a0607"
 preserveAspectRatio="xMidYMid meet">
<metadata>
Created by potrace 1.16, written by Peter Selinger 2001-2019
</metadata>
<g transform="translate(0.0a0607,171.0a0607) scale(0.100000,-0.100000)"
fill="#0a0607" stroke="none">
<path d="M1457 1184 c-8 -45 -9 -130 -2 -123 9 10 22 125 15 143 -5 16 -8 11
-13 -20z"/>
<path d="M1576 1190 c5 -19 9 -186 9 -370 l0 -335 -50 -27 c-27 -15 -53 -28
-57 -28 -5 0 -8 119 -8 263 0 243 -1 265 -18 281 -18 16 -19 9 -31 -181 -7
-109 -16 -229 -21 -268 -5 -38 -9 -91 -10 -117 l0 -48 -40 0 -40 0 0 236 c0
195 -2 235 -13 225 -9 -6 -17 -7 -23 -1 -10 10 -23 -55 -69 -350 -37 -237 -33
-224 -81 -228 -41 -3 -41 -2 -47 35 -4 21 -7 53 -7 71 0 17 -5 32 -11 32 -9 0
-10 -21 -6 -72 7 -98 13 -111 46 -105 68 14 86 22 105 43 12 12 59 40 106 60
72 32 176 88 277 151 l23 13 -6 363 c-5 300 -9 365 -21 377 -13 13 -14 11 -7
-20z m-293 -710 c3 -52 2 -103 -2 -113 -6 -17 -8 -18 -21 -3 -11 14 -11 33 0
117 7 55 14 99 15 97 2 -2 5 -46 8 -98z"/>
<path d="M1260 1200 c0 -5 5 -10 11 -10 5 0 7 5 4 10 -3 6 -8 10 -11 10 -2 0
-4 -4 -4 -10z"/>
<path d="M1300 1059 c-6 -50 -16 -105 -21 -123 -7 -25 -6 -34 8 -43 9 -7 18
-11 20 -9 8 8 44 238 39 251 -3 8 -12 15 -19 15 -10 0 -18 -26 -27 -91z"/>
<path d="M798 513 c18 -2 45 -2 60 0 15 2 0 4 -33 4 -33 0 -45 -2 -27 -4z"/>
<path d="M72 455 c0 -63 9 -97 28 -103 12 -4 13 -2 3 9 -7 8 -16 44 -21 79
-10 65 -10 65 -10 15z"/>
<path d="M1486 353 c-9 -38 -2 -53 24 -53 31 0 50 11 50 29 0 14 -7 17 -29 13
-25 -3 -30 0 -33 19 -3 21 -5 20 -12 -8z"/>
<path d="M205 340 c28 -5 66 -8 85 -8 l35 0 -30 8 c-16 4 -55 8 -85 7 l-55 0
50 -7z"/>
<path d="M370 319 c25 -4 63 -7 85 -7 39 1 39 1 -10 8 -27 5 -66 8 -85 8 -32
0 -31 -1 10 -9z"/>
<path d="M508 303 c7 -3 16 -2 19 1 4 3 -2 6 -13 5 -11 0 -14 -3 -6 -6z"/>
<path d="M588 293 c7 -3 16 -2 19 1 4 3 -2 6 -13 5 -11 0 -14 -3 -6 -6z"/>
<path d="M680 280 c46 -9 127 -13 119 -6 -2 2 -40 6 -84 9 -60 4 -69 3 -35 -3z"/>
<path d="M493 273 c9 -2 23 -2 30 0 6 3 -1 5 -18 5 -16 0 -22 -2 -12 -5z"/>
<path d="M968 243 c6 -2 18 -2 25 0 6 3 1 5 -13 5 -14 0 -19 -2 -12 -5z"/>
<path d="M803 233 c9 -2 23 -2 30 0 6 3 -1 5 -18 5 -16 0 -22 -2 -12 -5z"/>
<path d="M1018 203 c6 -2 18 -2 25 0 6 3 1 5 -13 5 -14 0 -19 -2 -12 -5z"/>
</g>
</svg>
