<?xml version="1.0" standalone="no"?>
<!DOCTYPE svg PUBLIC "-//W3C//DTD SVG 20010904//EN"
 "http://www.w3.org/TR/2001/REC-SVG-20010904/DTD/svg10.dtd">
<svg version="1.0" xmlns="http://www.w3.org/2000/svg"
 width="171.000000pt" height="171.000000pt" viewBox="0 0 171.000000 171.000000"
 preserveAspectRatio="xMidYMid meet">
<metadata>
Created by potrace 1.16, written by Peter Selinger 2001-2019
</metadata>
<g transform="translate(0.000000,171.000000) scale(0.100000,-0.100000)"
fill="#000000" stroke="none">
<path d="M930 1335 c28 -30 26 -29 34 -9 3 8 2 13 -3 10 -5 -3 -14 1 -21 9 -7
8 -17 15 -23 15 -6 0 0 -11 13 -25z"/>
<path d="M930 1205 c22 -23 40 -25 40 -4 0 6 -4 8 -9 5 -5 -3 -14 1 -21 9 -7
8 -17 15 -23 15 -6 0 0 -11 13 -25z"/>
<path d="M920 1077 c8 -7 20 -18 26 -25 8 -10 13 -6 23 14 10 23 10 25 -1 16
-9 -7 -19 -8 -28 -2 -22 14 -37 11 -20 -3z"/>
<path d="M502 685 c0 -16 2 -22 5 -12 2 9 2 23 0 30 -3 6 -5 -1 -5 -18z"/>
<path d="M464 470 c0 -74 1 -105 3 -67 2 37 2 97 0 135 -2 37 -3 6 -3 -68z"/>
</g>
</svg>
