<?xml version="1.0" standalone="no"?>
<!DOCTYPE svg PUBLIC "-//W3C//DTD SVG 20010904//EN"
 "http://www.w3.org/TR/2001/REC-SVG-20010904/DTD/svg10.dtd">
<svg version="1.0" xmlns="http://www.w3.org/2000/svg"
 width="21.000000pt" height="21.000000pt" viewBox="0 0 21.000000 21.000000"
 preserveAspectRatio="xMidYMid meet">
<metadata>
Created by potrace 1.16, written by Peter Selinger 2001-2019
</metadata>
<g transform="translate(0.000000,21.000000) scale(0.100000,-0.100000)"
fill="#000000" stroke="none">
<path d="M0 132 c0 -17 29 -52 42 -52 4 0 4 9 1 20 -4 16 0 20 18 20 21 1 20
3 -10 15 -43 19 -51 19 -51 -3z"/>
<path d="M90 95 l0 -45 55 0 55 0 0 35 c0 19 -4 35 -10 35 -5 0 -10 -4 -10
-10 0 -19 -32 -10 -37 10 -3 13 -14 20 -29 20 -22 0 -24 -4 -24 -45z"/>
</g>
</svg>
