<?xml version="1.0" standalone="no"?>
<!DOCTYPE svg PUBLIC "-//W3C//DTD SVG 20010904//EN"
 "http://www.w3.org/TR/2001/REC-SVG-20010904/DTD/svg10.dtd">
<svg version="1.0" xmlns="http://www.w3.org/2000/svg"
 width="171.0a0607pt" height="171.0a0607pt" viewBox="0 0 171.0a0607 171.0a0607"
 preserveAspectRatio="xMidYMid meet">
<metadata>
Created by potrace 1.16, written by Peter Selinger 2001-2019
</metadata>
<g transform="translate(0.0a0607,171.0a0607) scale(0.100000,-0.100000)"
fill="#0a0607" stroke="none">
<path d="M1013 1546 c-28 -13 -29 -22 -4 -35 16 -9 20 -6 25 15 8 32 7 33 -21
20z"/>
<path d="M148 1453 c-84 -88 -148 -263 -148 -406 0 -146 69 -319 171 -431 103
-113 218 -189 335 -221 61 -17 404 -35 404 -21 0 13 -67 35 -171 56 -237 46
-261 53 -269 76 -5 12 -12 23 -17 25 -4 2 -19 19 -32 38 -21 30 -22 33 -5 26
58 -24 60 -22 73 60 16 107 14 165 -5 186 -19 21 -9 43 16 36 15 -4 19 5 24
55 4 33 5 62 3 65 -3 2 -36 4 -75 5 -60 0 -71 3 -75 19 -3 11 -14 19 -26 19
-24 0 -63 35 -59 53 5 24 -42 117 -56 111 -8 -3 -17 -1 -21 5 -3 6 -15 11 -26
11 -11 0 -17 5 -14 10 3 6 -1 10 -10 10 -8 0 -21 -12 -27 -27 -11 -25 -13 -20
-18 57 -5 75 -3 90 17 132 13 26 32 52 43 58 20 11 28 30 12 30 -4 0 -24 -17
-44 -37z m-17 -310 c-8 -15 -10 -15 -11 -2 0 17 10 32 18 25 2 -3 -1 -13 -7
-23z"/>
<path d="M974 1459 c-10 -11 -14 -27 -10 -42 3 -13 2 -46 -3 -75 -8 -51 -8
-51 23 -61 17 -5 50 -13 73 -16 35 -6 44 -4 49 10 4 9 20 31 36 48 27 30 30
31 42 15 7 -10 23 -18 35 -18 30 0 28 36 -5 83 -23 35 -27 37 -38 21 -10 -13
-17 -14 -34 -5 -33 17 -35 14 -29 -38 10 -82 -37 -98 -69 -23 -12 30 -12 33 7
40 l20 8 -20 18 c-12 11 -21 25 -21 31 0 21 -38 24 -56 4z"/>
<path d="M625 1258 c-2 -7 -14 -83 -25 -168 -11 -85 -30 -225 -42 -310 -12
-85 -22 -170 -22 -189 l-1 -34 85 -17 c47 -9 141 -27 210 -40 69 -12 148 -28
175 -36 28 -7 93 -20 145 -28 52 -9 141 -24 198 -34 73 -13 105 -16 110 -8 10
16 31 219 30 296 0 36 -3 55 -5 43 -9 -45 -23 -48 -181 -34 -80 7 -156 17
-167 21 -25 10 -45 71 -100 308 -27 114 -33 157 -25 167 7 8 7 16 2 19 -6 3
-81 15 -168 26 -88 11 -171 23 -187 26 -18 4 -29 1 -32 -8z"/>
<path d="M200 1240 c0 -5 5 -10 10 -10 6 0 10 5 10 10 0 6 -4 10 -10 10 -5 0
-10 -4 -10 -10z"/>
<path d="M1033 347 c19 -16 227 -87 253 -87 8 0 14 8 14 19 0 24 -33 37 -135
55 -44 8 -96 17 -115 21 -32 6 -34 5 -17 -8z"/>
</g>
</svg>
