<?xml version="1.0" standalone="no"?>
<!DOCTYPE svg PUBLIC "-//W3C//DTD SVG 20010904//EN"
 "http://www.w3.org/TR/2001/REC-SVG-20010904/DTD/svg10.dtd">
<svg version="1.0" xmlns="http://www.w3.org/2000/svg"
 width="171.000000pt" height="171.000000pt" viewBox="0 0 171.000000 171.000000"
 preserveAspectRatio="xMidYMid meet">
<metadata>
Created by potrace 1.16, written by Peter Selinger 2001-2019
</metadata>
<g transform="translate(0.000000,171.000000) scale(0.100000,-0.100000)"
fill="#000000" stroke="none">
<path d="M675 1433 c-3 -38 -13 -106 -20 -153 -7 -47 -16 -108 -19 -136 l-6
-51 88 -12 c49 -6 104 -11 124 -11 41 0 73 -29 65 -60 -7 -26 12 -36 83 -45
30 -4 96 -15 145 -25 50 -10 93 -16 97 -12 4 4 10 57 13 117 6 94 5 107 -6 93
-13 -16 -23 -17 -114 -7 -55 6 -106 16 -112 23 -16 14 -84 283 -76 301 3 9 -6
15 -29 19 -18 3 -63 10 -99 16 -36 5 -79 10 -96 10 -30 0 -31 0 -38 -67z"/>
<path d="M136 1112 c-2 -4 -7 -29 -11 -57 -23 -177 -46 -348 -55 -398 -5 -32
-7 -64 -4 -71 3 -8 29 -16 61 -20 31 -4 83 -13 117 -21 136 -32 514 -100 521
-94 2 3 10 58 16 122 12 111 8 148 -11 118 -6 -11 -26 -13 -90 -7 -168 14
-168 14 -185 60 -25 67 -76 298 -70 316 5 16 -9 20 -112 34 -65 9 -130 19
-145 21 -15 2 -29 1 -32 -3z"/>
<path d="M972 895 c44 -24 148 -54 154 -44 13 22 -15 32 -146 53 l-35 5 27
-14z"/>
<path d="M1615 640 c-3 -5 -1 -10 4 -10 6 0 11 5 11 10 0 6 -2 10 -4 10 -3 0
-8 -4 -11 -10z"/>
<path d="M955 597 c-14 -11 -16 -21 -11 -49 8 -42 35 -56 170 -88 116 -28 124
-27 132 17 4 20 2 43 -3 52 -6 9 -44 22 -94 32 -46 10 -104 24 -128 33 -52 19
-43 19 -66 3z"/>
<path d="M1526 563 c-6 -14 -5 -15 5 -6 7 7 10 15 7 18 -3 3 -9 -2 -12 -12z"/>
<path d="M1387 523 c-4 -3 -7 -15 -7 -25 0 -15 4 -17 17 -10 20 12 26 42 9 42
-7 0 -16 -3 -19 -7z"/>
<path d="M440 427 c17 -16 69 -37 147 -60 45 -14 52 -14 57 -1 7 19 -39 39
-114 49 -30 4 -66 12 -80 17 -22 8 -23 7 -10 -5z"/>
</g>
</svg>
