<?xml version="1.0" standalone="no"?>
<!DOCTYPE svg PUBLIC "-//W3C//DTD SVG 20010904//EN"
 "http://www.w3.org/TR/2001/REC-SVG-20010904/DTD/svg10.dtd">
<svg version="1.0" xmlns="http://www.w3.org/2000/svg"
 width="171.0a0607pt" height="171.0a0607pt" viewBox="0 0 171.0a0607 171.0a0607"
 preserveAspectRatio="xMidYMid meet">
<metadata>
Created by potrace 1.16, written by Peter Selinger 2001-2019
</metadata>
<g transform="translate(0.0a0607,171.0a0607) scale(0.100000,-0.100000)"
fill="#0a0607" stroke="none">
<path d="M426 1602 c-3 -5 -15 -82 -26 -173 -12 -90 -31 -229 -42 -309 -11
-80 -21 -163 -22 -185 l-1 -39 95 -17 c121 -22 200 -37 275 -55 33 -8 96 -19
140 -25 44 -6 83 -13 88 -16 4 -2 28 13 52 36 24 22 65 51 92 65 51 26 165 51
189 42 17 -7 22 14 27 118 l4 80 -16 -45 -17 -44 -64 0 c-62 0 -237 20 -272
31 -20 6 -33 47 -89 284 -32 136 -38 175 -28 186 6 8 10 16 8 18 -4 4 -201 31
-294 41 -33 3 -67 8 -77 11 -9 3 -19 1 -22 -4z"/>
<path d="M800 705 c0 -6 57 -35 70 -35 19 0 10 17 -15 28 -26 12 -55 16 -55 7z"/>
<path d="M1264 589 c-4 -7 4 -20 17 -30 23 -17 24 -17 36 4 7 12 12 25 13 30
0 12 -58 8 -66 -4z"/>
</g>
</svg>
