<?xml version="1.0" standalone="no"?>
<!DOCTYPE svg PUBLIC "-//W3C//DTD SVG 20010904//EN"
 "http://www.w3.org/TR/2001/REC-SVG-20010904/DTD/svg10.dtd">
<svg version="1.0" xmlns="http://www.w3.org/2000/svg"
 width="171.0a0607pt" height="171.0a0607pt" viewBox="0 0 171.0a0607 171.0a0607"
 preserveAspectRatio="xMidYMid meet">
<metadata>
Created by potrace 1.16, written by Peter Selinger 2001-2019
</metadata>
<g transform="translate(0.0a0607,171.0a0607) scale(0.100000,-0.100000)"
fill="#0a0607" stroke="none">
<path d="M502 884 c2 -217 3 -231 8 -109 4 112 10 151 27 194 29 70 70 131 88
131 8 0 15 5 15 10 0 6 -15 10 -32 10 -18 0 -50 3 -70 6 l-38 7 2 -249z"/>
<path d="M798 1084 c12 -3 22 -9 22 -12 0 -4 -29 -37 -65 -72 -94 -93 -188
-233 -230 -342 -10 -27 -23 -48 -29 -48 -8 0 -13 -25 -14 -70 -2 -58 1 -75 17
-96 13 -16 22 -21 26 -13 5 7 21 9 44 5 20 -3 50 -8 66 -11 115 -18 367 -47
333 -38 -17 4 -16 14 2 58 24 56 50 138 50 155 0 11 3 20 8 20 9 0 32 72 32
100 0 11 5 20 10 20 6 0 10 7 10 16 0 10 14 60 31 113 18 53 33 103 34 111 7
47 14 50 109 51 l91 1 -110 13 c-60 7 -141 17 -180 23 -73 11 -297 25 -257 16z"/>
<path d="M486 404 c-11 -28 -6 -75 8 -80 8 -3 29 -4 47 -2 30 3 32 4 16 19
-22 23 -18 59 7 59 15 0 17 3 8 12 -9 9 -18 9 -37 0 -15 -7 -25 -8 -25 -2 0
16 -17 12 -24 -6z"/>
<path d="M603 364 c-1 -20 -6 -40 -12 -44 -15 -9 54 -24 254 -55 326 -52 412
-66 494 -81 92 -16 104 -12 99 32 -4 34 -1 33 -228 69 -158 25 -283 47 -470
81 -47 9 -89 20 -94 25 -23 21 -42 9 -43 -27z"/>
<path d="M460 290 c0 -12 59 -23 96 -17 26 4 25 4 -8 6 -20 0 -48 5 -62 11
-16 6 -26 6 -26 0z"/>
<path d="M608 263 c7 -3 16 -2 19 1 4 3 -2 6 -13 5 -11 0 -14 -3 -6 -6z"/>
<path d="M693 243 c9 -2 23 -2 30 0 6 3 -1 5 -18 5 -16 0 -22 -2 -12 -5z"/>
<path d="M763 233 c9 -2 25 -2 35 0 9 3 1 5 -18 5 -19 0 -27 -2 -17 -5z"/>
<path d="M858 223 c7 -3 16 -2 19 1 4 3 -2 6 -13 5 -11 0 -14 -3 -6 -6z"/>
<path d="M938 203 c12 -2 30 -2 40 0 9 3 -1 5 -23 4 -22 0 -30 -2 -17 -4z"/>
<path d="M1059 185 c35 -8 69 -11 75 -7 12 7 -59 21 -109 20 -17 0 -3 -6 34
-13z"/>
<path d="M1183 163 c9 -2 25 -2 35 0 9 3 1 5 -18 5 -19 0 -27 -2 -17 -5z"/>
<path d="M1258 153 c12 -2 30 -2 40 0 9 3 -1 5 -23 4 -22 0 -30 -2 -17 -4z"/>
<path d="M1465 145 c-8 -12 -18 -13 -50 -5 -22 5 -53 9 -70 9 -53 0 -5 -17 68
-25 64 -6 67 -6 67 15 0 25 -2 26 -15 6z"/>
</g>
</svg>
