<?xml version="1.0" standalone="no"?>
<!DOCTYPE svg PUBLIC "-//W3C//DTD SVG 20010904//EN"
 "http://www.w3.org/TR/2001/REC-SVG-20010904/DTD/svg10.dtd">
<svg version="1.0" xmlns="http://www.w3.org/2000/svg"
 width="16.000000pt" height="16.000000pt" viewBox="0 0 16.000000 16.000000"
 preserveAspectRatio="xMidYMid meet">
<metadata>
Created by potrace 1.16, written by Peter Selinger 2001-2019
</metadata>
<g transform="translate(0.000000,16.000000) scale(0.100000,-0.100000)"
fill="#000000" stroke="none">
<path d="M10 103 c0 -37 1 -38 39 -40 34 -1 40 2 45 23 4 14 16 26 31 30 48
12 25 24 -45 24 l-70 0 0 -37z"/>
<path d="M23 53 c-32 -13 -7 -23 57 -23 80 0 95 16 20 22 -28 1 -50 0 -50 -4
0 -5 -5 -8 -11 -8 -5 0 -7 5 -4 10 7 11 6 11 -12 3z"/>
</g>
</svg>
