<?xml version="1.0" standalone="no"?>
<!DOCTYPE svg PUBLIC "-//W3C//DTD SVG 20010904//EN"
 "http://www.w3.org/TR/2001/REC-SVG-20010904/DTD/svg10.dtd">
<svg version="1.0" xmlns="http://www.w3.org/2000/svg"
 width="171.000000pt" height="171.000000pt" viewBox="0 0 171.000000 171.000000"
 preserveAspectRatio="xMidYMid meet">
<metadata>
Created by potrace 1.16, written by Peter Selinger 2001-2019
</metadata>
<g transform="translate(0.000000,171.000000) scale(0.100000,-0.100000)"
fill="#000000" stroke="none">
<path d="M960 1062 c-14 -9 -29 -22 -33 -29 -4 -7 -14 -13 -21 -13 -7 0 -22
-10 -34 -23 -32 -33 -16 -50 40 -42 35 5 69 0 153 -24 60 -17 110 -33 112 -34
2 -2 5 -44 7 -93 3 -63 0 -98 -10 -123 -12 -28 -17 -32 -24 -21 -8 12 -14 10
-37 -12 -36 -34 -85 -58 -134 -66 l-39 -7 40 -54 c31 -41 40 -62 40 -92 0 -33
4 -41 26 -49 37 -14 99 4 121 36 10 14 33 43 51 64 l33 38 -28 14 c-42 20 -39
42 10 101 24 28 50 63 57 77 23 44 40 124 40 190 0 63 -2 68 -37 102 -52 50
-136 78 -233 77 -53 0 -82 -5 -100 -17z m137 -61 c48 -25 41 -26 -38 -2 -35
11 -73 22 -84 25 -11 3 3 4 32 1 28 -2 69 -13 90 -24z"/>
<path d="M648 934 c-5 -4 -8 -71 -9 -148 0 -78 -4 -149 -8 -159 -3 -10 -18
-23 -31 -30 l-25 -13 -3 -183 c-2 -160 -1 -183 13 -178 8 4 36 0 62 -8 77 -24
73 -32 73 143 l0 158 31 42 c43 59 35 96 -34 143 l-52 35 -5 103 c-3 56 -8 99
-12 95z"/>
<path d="M991 228 c0 -60 -5 -99 -12 -104 -8 -5 -6 -10 5 -16 10 -6 20 -8 22
-5 2 2 1 53 -4 113 l-9 109 -2 -97z"/>
<path d="M1471 226 c-1 -43 -3 -48 -21 -43 -14 3 -27 -5 -46 -30 -14 -19 -43
-47 -65 -62 -21 -16 -35 -31 -32 -35 24 -24 153 16 173 54 6 11 6 46 1 92 -7
64 -9 67 -10 24z"/>
</g>
</svg>
