<?xml version="1.0" standalone="no"?>
<!DOCTYPE svg PUBLIC "-//W3C//DTD SVG 20010904//EN"
 "http://www.w3.org/TR/2001/REC-SVG-20010904/DTD/svg10.dtd">
<svg version="1.0" xmlns="http://www.w3.org/2000/svg"
 width="171.0a0607pt" height="171.0a0607pt" viewBox="0 0 171.0a0607 171.0a0607"
 preserveAspectRatio="xMidYMid meet">
<metadata>
Created by potrace 1.16, written by Peter Selinger 2001-2019
</metadata>
<g transform="translate(0.0a0607,171.0a0607) scale(0.100000,-0.100000)"
fill="#0a0607" stroke="none">
<path d="M1430 1500 c-12 -7 -12 -12 -3 -21 10 -10 14 -9 19 5 8 22 2 27 -16
16z"/>
<path d="M793 1440 c-61 -56 -103 -144 -118 -244 l-7 -45 33 -5 c19 -3 71 -8
117 -11 77 -5 82 -4 82 14 0 58 -92 138 -126 111 -12 -11 -14 -3 -14 52 0 64
13 97 50 125 8 6 12 14 9 17 -3 3 -15 -3 -26 -14z"/>
<path d="M1418 1438 c-11 -9 -17 -35 -21 -81 -7 -95 -46 -170 -116 -219 l-53
-37 39 -10 c21 -6 64 -13 96 -17 83 -10 87 -19 74 -167 -5 -64 -8 -119 -5
-122 3 -3 21 2 41 10 34 14 37 14 37 -2 0 -25 65 52 101 121 17 32 35 84 40
115 10 58 3 123 -11 101 -4 -6 -11 -11 -16 -11 -20 2 -79 -23 -87 -35 -16 -28
-33 -13 -45 40 -11 45 -10 61 2 97 8 23 12 47 10 51 -3 5 6 27 21 49 25 38 28
40 44 25 39 -35 54 -9 26 44 -15 30 -35 40 -35 19 0 -7 -10 -9 -26 -5 -26 7
-27 6 -22 -26 10 -61 -16 -79 -46 -33 -20 30 -20 43 -2 47 11 2 9 9 -8 31 -18
23 -24 25 -38 15z"/>
<path d="M215 1411 c-51 -23 -111 -89 -142 -158 -33 -71 -50 -170 -37 -214 9
-33 10 -32 32 50 32 118 74 201 139 271 31 33 54 62 52 65 -3 2 -22 -4 -44
-14z"/>
<path d="M520 1092 c0 -34 -29 -253 -61 -461 -11 -73 -17 -137 -12 -141 4 -4
26 -10 48 -13 55 -6 209 -36 270 -53 52 -14 238 -49 315 -59 25 -3 78 -13 118
-22 40 -9 74 -14 77 -12 6 6 35 254 35 299 l0 35 -23 -28 -22 -28 -140 16
c-87 10 -145 21 -154 30 -14 13 -101 341 -101 381 0 11 5 25 12 32 7 7 9 12 5
12 -4 0 -51 6 -105 14 -53 8 -134 18 -179 22 l-83 7 0 -31z"/>
<path d="M255 946 c-3 -9 -7 -23 -10 -31 -2 -9 -14 -19 -26 -24 -19 -6 -20 -9
-6 -14 18 -7 23 -32 9 -41 -4 -3 -25 -1 -45 4 -46 10 -48 -3 -9 -49 26 -31 34
-35 97 -40 67 -6 68 -7 80 -41 l12 -35 8 38 c5 28 16 44 41 60 28 18 34 28 34
58 l0 36 -39 -10 c-25 -7 -50 -7 -72 -1 -29 8 -36 16 -44 51 -12 48 -22 62
-30 39z"/>
<path d="M110 884 c0 -8 5 -12 10 -9 6 4 8 11 5 16 -9 14 -15 11 -15 -7z"/>
<path d="M360 610 c0 -12 36 -40 43 -33 15 14 6 31 -18 35 -14 3 -25 2 -25 -2z"/>
<path d="M878 304 c26 -18 171 -69 224 -79 27 -5 37 -3 41 9 9 23 -17 34 -149
61 -137 29 -146 30 -116 9z"/>
</g>
</svg>
