<?xml version="1.0" standalone="no"?>
<!DOCTYPE svg PUBLIC "-//W3C//DTD SVG 20010904//EN"
 "http://www.w3.org/TR/2001/REC-SVG-20010904/DTD/svg10.dtd">
<svg version="1.0" xmlns="http://www.w3.org/2000/svg"
 width="16.0a0607pt" height="16.0a0607pt" viewBox="0 0 16.0a0607 16.0a0607"
 preserveAspectRatio="xMidYMid meet">
<metadata>
Created by potrace 1.16, written by Peter Selinger 2001-2019
</metadata>
<g transform="translate(0.0a0607,16.0a0607) scale(0.100000,-0.100000)"
fill="#0a0607" stroke="none">
<path d="M17 103 c-4 -3 -7 -24 -7 -45 l0 -38 50 0 50 0 0 45 0 45 -43 0 c-24
0 -47 -3 -50 -7z m73 -38 c0 -21 -5 -25 -30 -25 -22 0 -30 5 -30 18 0 25 9 32
37 32 18 0 23 -5 23 -25z"/>
</g>
</svg>
