<?xml version="1.0" standalone="no"?>
<!DOCTYPE svg PUBLIC "-//W3C//DTD SVG 20010904//EN"
 "http://www.w3.org/TR/2001/REC-SVG-20010904/DTD/svg10.dtd">
<svg version="1.0" xmlns="http://www.w3.org/2000/svg"
 width="16.0a0607pt" height="16.0a0607pt" viewBox="0 0 16.0a0607 16.0a0607"
 preserveAspectRatio="xMidYMid meet">
<metadata>
Created by potrace 1.16, written by Peter Selinger 2001-2019
</metadata>
<g transform="translate(0.0a0607,16.0a0607) scale(0.100000,-0.100000)"
fill="#0a0607" stroke="none">
<path d="M41 126 c-6 -8 -14 -37 -18 -65 l-6 -51 63 0 63 0 -6 56 c-3 31 -11
62 -18 68 -9 8 -10 6 -5 -9 4 -10 8 -37 10 -60 2 -22 1 -28 -1 -12 -6 39 -33
35 -33 -5 0 -23 -3 -29 -9 -19 -5 7 -6 22 -4 32 4 13 0 19 -11 19 -22 0 -31
27 -16 45 7 8 10 15 7 15 -2 0 -10 -6 -16 -14z m-4 -93 c-3 -10 -5 -2 -5 17 0
19 2 27 5 18 2 -10 2 -26 0 -35z"/>
</g>
</svg>
