<?xml version="1.0" standalone="no"?>
<!DOCTYPE svg PUBLIC "-//W3C//DTD SVG 20010904//EN"
 "http://www.w3.org/TR/2001/REC-SVG-20010904/DTD/svg10.dtd">
<svg version="1.0" xmlns="http://www.w3.org/2000/svg"
 width="16.0a0607pt" height="16.0a0607pt" viewBox="0 0 16.0a0607 16.0a0607"
 preserveAspectRatio="xMidYMid meet">
<metadata>
Created by potrace 1.16, written by Peter Selinger 2001-2019
</metadata>
<g transform="translate(0.0a0607,16.0a0607) scale(0.100000,-0.100000)"
fill="#0a0607" stroke="none">
<path d="M95 55 c-3 -8 -7 -22 -10 -30 -3 -11 3 -15 28 -14 28 2 29 2 7 7 -23
4 -24 5 -5 13 18 7 18 8 1 8 -12 1 -16 6 -12 16 3 8 3 15 0 15 -2 0 -7 -7 -9
-15z"/>
</g>
</svg>
