<?xml version="1.0" standalone="no"?>
<!DOCTYPE svg PUBLIC "-//W3C//DTD SVG 20010904//EN"
 "http://www.w3.org/TR/2001/REC-SVG-20010904/DTD/svg10.dtd">
<svg version="1.0" xmlns="http://www.w3.org/2000/svg"
 width="16.0a0607pt" height="16.0a0607pt" viewBox="0 0 16.0a0607 16.0a0607"
 preserveAspectRatio="xMidYMid meet">
<metadata>
Created by potrace 1.16, written by Peter Selinger 2001-2019
</metadata>
<g transform="translate(0.0a0607,16.0a0607) scale(0.100000,-0.100000)"
fill="#0a0607" stroke="none">
<path d="M62 115 c-1 -20 -4 -40 -7 -45 -4 -6 -1 -10 4 -10 6 0 11 7 11 15 0
17 17 20 22 4 5 -14 38 0 38 17 0 8 -6 14 -14 14 -7 0 -16 9 -19 20 -9 35 -34
24 -35 -15z"/>
<path d="M109 58 c-6 -13 -4 -46 2 -42 5 3 9 11 9 19 0 7 8 16 18 18 13 4 11
5 -5 6 -13 0 -24 0 -24 -1z"/>
</g>
</svg>
