<?xml version="1.0" standalone="no"?>
<!DOCTYPE svg PUBLIC "-//W3C//DTD SVG 20010904//EN"
 "http://www.w3.org/TR/2001/REC-SVG-20010904/DTD/svg10.dtd">
<svg version="1.0" xmlns="http://www.w3.org/2000/svg"
 width="804.000000pt" height="809.000000pt" viewBox="0 0 804.000000 809.000000"
 preserveAspectRatio="xMidYMid meet">
<metadata>
Created by potrace 1.16, written by Peter Selinger 2001-2019
</metadata>
<g transform="translate(0.000000,809.000000) scale(0.100000,-0.100000)"
fill="#000000" stroke="none">
<path d="M2011 6083 l-2013 -2007 513 -505 c283 -278 622 -612 754 -743 l240
-238 -398 -398 -398 -398 1 -593 0 -593 96 -113 c53 -63 101 -112 108 -110 6
2 62 15 125 30 62 15 124 31 137 36 14 5 350 220 749 479 398 258 728 470 732
470 4 0 312 -315 683 -700 l675 -699 457 457 c251 251 1157 1161 2012 2022
l1556 1565 -831 831 -830 831 319 314 319 314 21 390 c20 356 21 396 7 454
-22 92 -68 183 -115 225 -43 39 -150 96 -217 116 l-42 13 -158 -89 c-87 -48
-387 -223 -668 -387 l-509 -298 -206 208 c-113 114 -409 414 -656 665 l-450
458 -2013 -2007z m2501 973 l488 -494 -1517 -889 c-835 -488 -1536 -902 -1558
-918 -22 -17 -56 -53 -77 -80 -50 -66 -55 -111 -73 -680 -17 -560 -15 -579 69
-653 52 -45 120 -62 250 -62 l111 0 -210 -210 c-115 -115 -213 -210 -216 -210
-4 0 -285 273 -624 607 l-616 607 1738 1738 c956 956 1740 1738 1743 1738 3 0
224 -223 492 -494z m2228 78 c11 -39 10 -96 -5 -355 l-17 -309 -775 -772 -774
-773 313 -116 313 -116 7 -114 c8 -125 -9 -770 -20 -781 -9 -8 -4657 -3026
-4697 -3049 -16 -9 -40 -20 -52 -24 l-23 -6 0 473 -1 473 963 957 963 957
-432 1 -433 0 0 53 c0 28 7 237 15 462 14 404 14 410 36 425 30 20 4166 2444
4394 2575 132 76 184 101 196 94 9 -4 22 -29 29 -55z m20 -2341 c350 -351 660
-664 690 -696 l55 -57 -710 -713 c-391 -391 -1175 -1179 -1743 -1749 l-1033
-1036 -519 536 -519 537 117 76 c168 110 2822 1833 2913 1891 l77 49 8 187
c11 252 11 852 1 984 l-9 106 -184 69 -183 68 192 193 c105 105 196 192 202
192 6 0 296 -287 645 -637z"/>
<path d="M4915 4202 c-647 -397 -853 -530 -1815 -1174 -852 -570 -1172 -790
-1489 -1025 -302 -223 -398 -299 -382 -301 15 -2 100 47 259 151 262 170 2058
1336 3367 2185 462 300 842 547 844 549 3 2 -8 17 -25 33 l-29 30 -730 -448z"/>
</g>
</svg>
