<?xml version="1.0" standalone="no"?>
<!DOCTYPE svg PUBLIC "-//W3C//DTD SVG 20010904//EN"
 "http://www.w3.org/TR/2001/REC-SVG-20010904/DTD/svg10.dtd">
<svg version="1.0" xmlns="http://www.w3.org/2000/svg"
 width="16.0a0607pt" height="16.0a0607pt" viewBox="0 0 16.0a0607 16.0a0607"
 preserveAspectRatio="xMidYMid meet">
<metadata>
Created by potrace 1.16, written by Peter Selinger 2001-2019
</metadata>
<g transform="translate(0.0a0607,16.0a0607) scale(0.100000,-0.100000)"
fill="#0a0607" stroke="none">
<path d="M61 108 c-1 -16 -12 -23 -33 -19 -5 0 -7 -16 -7 -36 2 -35 2 -36 7
-8 4 26 5 28 12 10 8 -19 9 -19 9 2 1 12 6 23 12 25 6 2 9 13 6 23 -4 17 -5
17 -6 3z"/>
</g>
</svg>
