<?xml version="1.0" standalone="no"?>
<!DOCTYPE svg PUBLIC "-//W3C//DTD SVG 20010904//EN"
 "http://www.w3.org/TR/2001/REC-SVG-20010904/DTD/svg10.dtd">
<svg version="1.0" xmlns="http://www.w3.org/2000/svg"
 width="64.0a0607pt" height="64.0a0607pt" viewBox="0 0 64.0a0607 64.0a0607"
 preserveAspectRatio="xMidYMid meet">
<metadata>
Created by potrace 1.16, written by Peter Selinger 2001-2019
</metadata>
<g transform="translate(0.0a0607,64.0a0607) scale(0.100000,-0.100000)"
fill="#0a0607" stroke="none">
<path d="M190 515 c-52 -48 -76 -65 -98 -65 -46 0 -52 -14 -52 -131 0 -100 2
-109 22 -123 12 -9 33 -16 47 -16 16 0 45 -20 87 -60 34 -33 68 -60 75 -60 7
0 21 7 31 17 17 15 20 15 41 -3 79 -70 187 -52 232 39 60 120 -72 252 -192
192 -17 -9 -36 -22 -43 -30 -7 -8 -16 -15 -21 -15 -5 0 -9 67 -9 148 0 201
-10 210 -120 107z m98 -190 c1 -147 -1 -232 -8 -239 -7 -7 -33 12 -83 61 -62
62 -76 71 -100 66 l-27 -5 0 112 0 113 28 -6 c25 -5 37 3 98 64 38 38 73 68
79 66 6 -2 11 -88 13 -232z m224 -82 c21 -20 28 -36 28 -64 0 -21 -4 -41 -10
-44 -14 -9 -120 94 -120 116 0 31 67 26 102 -8z m-78 -80 c31 -31 55 -61 53
-67 -2 -6 -22 -12 -44 -14 -35 -3 -44 1 -67 28 -33 39 -36 110 -6 110 4 0 33
-26 64 -57z"/>
</g>
</svg>
