<?xml version="1.0" standalone="no"?>
<!DOCTYPE svg PUBLIC "-//W3C//DTD SVG 20010904//EN"
 "http://www.w3.org/TR/2001/REC-SVG-20010904/DTD/svg10.dtd">
<svg version="1.0" xmlns="http://www.w3.org/2000/svg"
 width="16.000000pt" height="16.000000pt" viewBox="0 0 16.000000 16.000000"
 preserveAspectRatio="xMidYMid meet">
<metadata>
Created by potrace 1.16, written by Peter Selinger 2001-2019
</metadata>
<g transform="translate(0.000000,16.000000) scale(0.100000,-0.100000)"
fill="#000000" stroke="none">
<path d="M30 140 c-8 -5 -12 -11 -10 -14 3 -2 14 2 24 10 22 15 10 19 -14 4z"/>
<path d="M80 140 c0 -5 -9 -10 -20 -10 -14 0 -21 -9 -25 -37 -3 -21 -8 -48
-11 -61 -2 -12 0 -22 6 -22 6 0 8 5 5 10 -3 6 -2 10 2 10 5 0 7 16 5 36 -4 34
-3 37 18 31 14 -4 20 -2 17 6 -7 17 20 40 27 24 5 -9 7 -9 12 0 4 10 8 10 18
0 14 -12 12 -25 -6 -63 -5 -12 -8 -30 -5 -40 3 -14 5 -13 6 7 0 14 5 29 10 35
13 12 16 45 6 67 -8 18 -65 25 -65 7z"/>
<path d="M87 40 c-3 -11 -1 -23 4 -26 5 -3 9 6 9 20 0 31 -6 34 -13 6z"/>
</g>
</svg>
