<?xml version="1.0" standalone="no"?>
<!DOCTYPE svg PUBLIC "-//W3C//DTD SVG 20010904//EN"
 "http://www.w3.org/TR/2001/REC-SVG-20010904/DTD/svg10.dtd">
<svg version="1.0" xmlns="http://www.w3.org/2000/svg"
 width="16.000000pt" height="16.000000pt" viewBox="0 0 16.000000 16.000000"
 preserveAspectRatio="xMidYMid meet">
<metadata>
Created by potrace 1.16, written by Peter Selinger 2001-2019
</metadata>
<g transform="translate(0.000000,16.000000) scale(0.100000,-0.100000)"
fill="#000000" stroke="none">
<path d="M33 143 c-7 -2 -13 -10 -13 -16 0 -8 4 -7 12 1 15 15 58 16 58 2 0
-15 17 -12 24 5 4 12 -3 15 -32 14 -20 0 -43 -3 -49 -6z"/>
<path d="M58 123 c-13 -3 -18 -15 -18 -43 0 -21 -4 -42 -10 -45 -20 -12 -9
-21 26 -21 34 1 35 2 29 31 -3 17 -7 42 -8 58 -1 15 -2 26 -2 26 0 -1 -8 -3
-17 -6z m22 -87 c0 -2 -11 -6 -25 -8 -13 -3 -22 -1 -19 3 5 9 44 13 44 5z"/>
<path d="M124 110 c0 -13 4 -16 10 -10 7 7 7 13 0 20 -6 6 -10 3 -10 -10z"/>
<path d="M116 65 c-3 -9 -6 -24 -5 -33 0 -9 5 -4 10 12 9 32 6 48 -5 21z"/>
</g>
</svg>
