<?xml version="1.0" standalone="no"?>
<!DOCTYPE svg PUBLIC "-//W3C//DTD SVG 20010904//EN"
 "http://www.w3.org/TR/2001/REC-SVG-20010904/DTD/svg10.dtd">
<svg version="1.0" xmlns="http://www.w3.org/2000/svg"
 width="16.000000pt" height="16.000000pt" viewBox="0 0 16.000000 16.000000"
 preserveAspectRatio="xMidYMid meet">
<metadata>
Created by potrace 1.16, written by Peter Selinger 2001-2019
</metadata>
<g transform="translate(0.000000,16.000000) scale(0.100000,-0.100000)"
fill="#000000" stroke="none">
<path d="M63 143 c9 -2 15 -9 12 -14 -4 -5 -1 -9 4 -9 6 0 11 6 11 13 0 8 4 7
10 -3 9 -13 10 -13 11 0 0 8 7 2 14 -15 15 -32 19 -25 9 13 -5 19 -13 22 -48
21 -22 -1 -33 -3 -23 -6z"/>
<path d="M24 126 c-3 -7 -4 -35 -2 -62 l3 -49 38 -1 37 -1 -36 4 -36 4 4 60
c3 60 1 70 -8 45z"/>
<path d="M40 75 c0 -41 2 -45 24 -45 27 0 37 17 25 40 -4 8 -10 23 -13 33 -3
9 -12 17 -21 17 -11 0 -15 -11 -15 -45z"/>
<path d="M114 56 c-3 -8 -4 -23 -2 -33 3 -11 6 -6 9 15 6 34 2 42 -7 18z"/>
</g>
</svg>
