<?xml version="1.0" standalone="no"?>
<!DOCTYPE svg PUBLIC "-//W3C//DTD SVG 20010904//EN"
 "http://www.w3.org/TR/2001/REC-SVG-20010904/DTD/svg10.dtd">
<svg version="1.0" xmlns="http://www.w3.org/2000/svg"
 width="16.0a0607pt" height="16.0a0607pt" viewBox="0 0 16.0a0607 16.0a0607"
 preserveAspectRatio="xMidYMid meet">
<metadata>
Created by potrace 1.16, written by Peter Selinger 2001-2019
</metadata>
<g transform="translate(0.0a0607,16.0a0607) scale(0.100000,-0.100000)"
fill="#0a0607" stroke="none">
<path d="M32 138 c-7 -7 -12 -38 -12 -69 l0 -57 33 2 c23 1 34 7 38 21 3 11 1
23 -3 26 -5 3 -10 20 -10 36 -1 24 -5 29 -19 26 -28 -8 -26 -63 1 -63 12 0 20
-7 20 -16 0 -11 -6 -15 -20 -11 -10 3 -21 0 -24 -7 -2 -6 -5 15 -5 46 -1 54 0
58 26 64 17 5 28 3 31 -4 5 -17 19 -15 26 3 4 12 -3 15 -32 15 -21 0 -43 -5
-50 -12z"/>
<path d="M124 109 c0 -10 4 -19 8 -19 4 0 8 6 8 14 0 8 -4 17 -8 20 -4 2 -8
-4 -8 -15z"/>
<path d="M114 56 c-3 -8 -4 -23 -2 -33 3 -11 6 -6 9 15 6 34 2 42 -7 18z"/>
</g>
</svg>
