<?xml version="1.0" standalone="no"?>
<!DOCTYPE svg PUBLIC "-//W3C//DTD SVG 20010904//EN"
 "http://www.w3.org/TR/2001/REC-SVG-20010904/DTD/svg10.dtd">
<svg version="1.0" xmlns="http://www.w3.org/2000/svg"
 width="16.000000pt" height="16.000000pt" viewBox="0 0 16.000000 16.000000"
 preserveAspectRatio="xMidYMid meet">
<metadata>
Created by potrace 1.16, written by Peter Selinger 2001-2019
</metadata>
<g transform="translate(0.000000,16.000000) scale(0.100000,-0.100000)"
fill="#000000" stroke="none">
<path d="M43 143 c-7 -2 -13 -9 -13 -14 0 -5 8 -4 18 2 11 7 31 9 45 5 26 -6
27 -9 25 -64 l-2 -57 -3 53 c-4 50 -5 52 -34 52 -18 0 -29 -5 -29 -14 0 -9 8
-12 25 -8 23 4 25 1 25 -33 0 -34 -2 -37 -25 -33 -14 3 -25 1 -25 -4 0 -5 -4
-6 -10 -3 -5 3 -10 3 -10 -2 0 -4 23 -8 50 -8 l50 0 0 61 c0 47 -4 63 -16 68
-18 7 -53 7 -71 -1z"/>
</g>
</svg>
