<?xml version="1.0" standalone="no"?>
<!DOCTYPE svg PUBLIC "-//W3C//DTD SVG 20010904//EN"
 "http://www.w3.org/TR/2001/REC-SVG-20010904/DTD/svg10.dtd">
<svg version="1.0" xmlns="http://www.w3.org/2000/svg"
 width="16.000000pt" height="16.000000pt" viewBox="0 0 16.000000 16.000000"
 preserveAspectRatio="xMidYMid meet">
<metadata>
Created by potrace 1.16, written by Peter Selinger 2001-2019
</metadata>
<g transform="translate(0.000000,16.000000) scale(0.100000,-0.100000)"
fill="#000000" stroke="none">
<path d="M45 144 c-6 -2 -9 -34 -8 -71 l1 -68 34 -2 33 -1 -35 8 -35 7 33 2
c27 1 32 5 31 24 -1 16 -2 18 -6 5 -2 -10 -13 -18 -24 -18 -16 0 -19 7 -19 40
0 33 3 40 20 40 12 0 20 7 20 18 0 14 2 15 10 2 8 -13 10 -13 10 -1 0 11 4 10
14 -4 14 -20 10 -54 -8 -68 -7 -6 -6 -7 3 -5 18 5 35 61 21 66 -6 2 -10 10
-10 18 0 10 -11 14 -37 13 -21 0 -42 -2 -48 -5z m35 -14 c0 -5 -10 -10 -22
-10 -19 0 -20 2 -8 10 19 13 30 13 30 0z"/>
</g>
</svg>
