<?xml version="1.0" standalone="no"?>
<!DOCTYPE svg PUBLIC "-//W3C//DTD SVG 20010904//EN"
 "http://www.w3.org/TR/2001/REC-SVG-20010904/DTD/svg10.dtd">
<svg version="1.0" xmlns="http://www.w3.org/2000/svg"
 width="16.0a0607pt" height="16.0a0607pt" viewBox="0 0 16.0a0607 16.0a0607"
 preserveAspectRatio="xMidYMid meet">
<metadata>
Created by potrace 1.16, written by Peter Selinger 2001-2019
</metadata>
<g transform="translate(0.0a0607,16.0a0607) scale(0.100000,-0.100000)"
fill="#0a0607" stroke="none">
<path d="M28 139 c-14 -8 -18 -23 -18 -64 0 -30 3 -56 8 -58 4 -3 5 17 4 44
-3 30 1 56 9 65 18 22 61 13 76 -16 12 -24 13 -24 13 -3 0 36 -54 55 -92 32z"/>
<path d="M30 75 c0 -41 2 -45 25 -45 27 0 45 25 45 64 0 23 -4 26 -35 26 -35
0 -35 0 -35 -45z"/>
<path d="M110 50 c0 -5 5 -10 10 -10 6 0 10 5 10 10 0 6 -4 10 -10 10 -5 0
-10 -4 -10 -10z"/>
</g>
</svg>
