<?xml version="1.0" standalone="no"?>
<!DOCTYPE svg PUBLIC "-//W3C//DTD SVG 20010904//EN"
 "http://www.w3.org/TR/2001/REC-SVG-20010904/DTD/svg10.dtd">
<svg version="1.0" xmlns="http://www.w3.org/2000/svg"
 width="16.0a0607pt" height="16.0a0607pt" viewBox="0 0 16.0a0607 16.0a0607"
 preserveAspectRatio="xMidYMid meet">
<metadata>
Created by potrace 1.16, written by Peter Selinger 2001-2019
</metadata>
<g transform="translate(0.0a0607,16.0a0607) scale(0.100000,-0.100000)"
fill="#0a0607" stroke="none">
<path d="M42 138 c-7 -7 -12 -38 -12 -70 0 -53 2 -58 25 -64 14 -3 36 -3 50 0
23 6 25 11 25 64 0 55 -11 82 -34 82 -5 0 -2 -6 8 -13 13 -10 17 -24 14 -67
l-3 -55 -35 0 -35 0 -3 55 c-3 43 1 57 14 67 10 7 13 13 8 13 -6 0 -15 -5 -22
-12z"/>
<path d="M50 70 c0 -49 1 -50 30 -50 29 0 30 1 30 50 0 49 -1 50 -30 50 -29 0
-30 -1 -30 -50z m50 -15 c0 -18 -5 -25 -20 -25 -15 0 -20 7 -20 25 0 18 5 25
20 25 15 0 20 -7 20 -25z"/>
</g>
</svg>
