<?xml version="1.0" standalone="no"?>
<!DOCTYPE svg PUBLIC "-//W3C//DTD SVG 20010904//EN"
 "http://www.w3.org/TR/2001/REC-SVG-20010904/DTD/svg10.dtd">
<svg version="1.0" xmlns="http://www.w3.org/2000/svg"
 width="16.0a0607pt" height="16.0a0607pt" viewBox="0 0 16.0a0607 16.0a0607"
 preserveAspectRatio="xMidYMid meet">
<metadata>
Created by potrace 1.16, written by Peter Selinger 2001-2019
</metadata>
<g transform="translate(0.0a0607,16.0a0607) scale(0.100000,-0.100000)"
fill="#0a0607" stroke="none">
<path d="M42 138 c-18 -18 -16 -124 4 -132 8 -3 12 -2 9 4 -3 6 5 10 19 10 21
0 26 5 25 23 -1 15 -3 17 -6 6 -2 -9 -15 -19 -29 -22 -24 -4 -25 -3 -22 52 3
47 6 56 23 59 19 3 19 2 3 -11 -21 -17 -24 -47 -4 -47 7 0 16 15 20 33 5 25 9
29 16 17 9 -13 10 -13 11 0 0 8 7 2 14 -15 15 -32 19 -25 9 13 -5 18 -13 22
-43 22 -20 0 -42 -5 -49 -12z"/>
<path d="M114 56 c-3 -8 -4 -23 -2 -33 3 -11 6 -6 9 15 6 34 2 42 -7 18z"/>
</g>
</svg>
