<?xml version="1.0" standalone="no"?>
<!DOCTYPE svg PUBLIC "-//W3C//DTD SVG 20010904//EN"
 "http://www.w3.org/TR/2001/REC-SVG-20010904/DTD/svg10.dtd">
<svg version="1.0" xmlns="http://www.w3.org/2000/svg"
 width="64.000000pt" height="64.000000pt" viewBox="0 0 64.000000 64.000000"
 preserveAspectRatio="xMidYMid meet">
<metadata>
Created by potrace 1.16, written by Peter Selinger 2001-2019
</metadata>
<g transform="translate(0.000000,64.000000) scale(0.100000,-0.100000)"
fill="#000000" stroke="none">
<path d="M190 515 c-52 -48 -76 -65 -98 -65 -46 0 -52 -14 -52 -131 0 -100 2
-109 22 -123 12 -9 33 -16 47 -16 16 0 45 -20 87 -60 109 -105 114 -97 114
200 0 300 -3 305 -120 195z m98 -190 c1 -147 -1 -232 -8 -239 -7 -7 -33 12
-83 61 -62 62 -76 71 -100 66 l-27 -5 0 112 0 113 28 -6 c25 -5 37 3 98 64 38
38 73 68 79 66 6 -2 11 -88 13 -232z"/>
</g>
</svg>
